<svg width="701" height="414" viewBox="0 0 701 414" fill="none" xmlns="http://www.w3.org/2000/svg">
<rect x="111" y="292" width="582" height="78" fill="#AC9573" fill-opacity="0.3"/>
<path d="M194.876 292.818C211.66 292.818 225.266 289.075 225.266 284.458C225.266 279.841 211.66 276.098 194.876 276.098C178.092 276.098 164.486 279.841 164.486 284.458C164.486 289.075 178.092 292.818 194.876 292.818Z" fill="#232323"/>
<path d="M37.8056 303.458C6.17557 303.458 1.50557 298.888 1.04557 295.198C0.941107 294.43 1.01683 293.647 1.26675 292.913C1.51667 292.179 1.93394 291.513 2.48557 290.968C11.0056 282.028 60.1056 285.808 128.046 291.038C137.526 291.768 147.326 292.518 157.376 293.268C226.026 298.368 253.666 297.708 259.376 290.808C260.536 289.398 260.776 287.638 260.136 285.258C257.416 275.308 221.056 275.258 207.286 276.038C206.97 276.054 206.662 275.946 206.426 275.736C206.19 275.527 206.046 275.233 206.026 274.918C206.016 274.762 206.038 274.606 206.089 274.459C206.14 274.311 206.22 274.175 206.325 274.059C206.429 273.943 206.555 273.848 206.696 273.781C206.837 273.714 206.99 273.676 207.146 273.668C212.416 273.358 258.716 271.028 262.426 284.668C263.276 287.808 262.886 290.318 261.206 292.358C254.796 300.138 228.556 300.968 157.206 295.668C147.146 294.918 137.346 294.168 127.866 293.438C63.1056 288.438 11.9456 284.508 4.20557 292.638C3.89955 292.928 3.66731 293.288 3.52816 293.686C3.38902 294.084 3.34699 294.51 3.40557 294.928C3.69557 297.288 9.40557 302.558 55.4056 300.728C81.1356 299.728 106.986 296.898 107.246 296.868C107.547 296.856 107.841 296.958 108.07 297.155C108.298 297.351 108.443 297.627 108.476 297.927C108.509 298.226 108.428 298.527 108.247 298.769C108.067 299.01 107.802 299.174 107.506 299.228C107.246 299.228 81.3156 302.068 55.5056 303.098C48.8656 303.338 42.9856 303.458 37.8056 303.458Z" fill="white" stroke="#232323" stroke-width="1.11" stroke-miterlimit="10"/>
<path d="M191.691 290.866C210.955 286.39 222.943 267.145 218.468 247.881C213.992 228.617 194.747 216.628 175.482 221.104C156.218 225.58 144.23 244.825 148.706 264.089C153.182 283.354 172.427 295.342 191.691 290.866Z" fill="white"/>
<path d="M183.575 291.308H183.575C175.072 291.312 166.867 288.236 160.471 282.668C182.331 278.643 195.508 270.968 203.284 262.297C210.665 254.065 213.136 244.981 213.589 237.389C216.696 242.394 218.506 248.106 218.841 254.005C219.206 260.42 217.813 266.813 214.811 272.495C211.81 278.177 207.315 282.932 201.811 286.247C196.306 289.562 190.001 291.312 183.575 291.308Z" fill="#AC9573" stroke="#232323"/>
<path opacity="0.3" d="M183.575 291.308H183.575C175.072 291.312 166.867 288.236 160.471 282.668C182.331 278.643 195.508 270.968 203.284 262.297C210.665 254.065 213.136 244.981 213.589 237.389C216.696 242.394 218.506 248.106 218.841 254.005C219.206 260.42 217.813 266.813 214.811 272.495C211.81 278.177 207.315 282.932 201.811 286.247C196.306 289.562 190.001 291.312 183.575 291.308Z" fill="white" stroke="#232323"/>
<path d="M201.195 270.038C194.809 263.825 187.054 259.198 178.555 256.528C187.054 259.198 194.809 263.825 201.195 270.038H203.095C207.309 265.86 210.939 261.13 213.885 255.978C197.115 238.258 180.805 240.068 180.805 240.068C180.805 240.068 197.165 238.258 213.935 255.998C214.855 254.348 215.625 252.798 216.255 251.368C209.275 241.588 197.255 234.918 190.805 233.918L189.305 233.558C186.993 233.138 184.627 233.104 182.305 233.458C184.627 233.104 186.993 233.138 189.305 233.558L193.575 221.558C191.557 220.981 189.492 220.583 187.405 220.368C184.635 224.838 177.505 239.118 177.505 267.448C177.505 239.118 184.635 224.838 187.405 220.368C186.205 220.258 185.005 220.188 183.775 220.188C182.421 220.192 181.069 220.272 179.725 220.428C175.505 226.808 167.435 241.878 166.895 264.498C175.265 267.548 186.465 269.828 201.195 270.038ZM209.285 262.748C195.025 248.848 179.285 248.118 179.285 248.118C179.285 248.118 195.025 248.848 209.285 262.748V262.748Z" stroke="#232323" stroke-width="1.11" stroke-linecap="round" stroke-linejoin="round"/>
<path d="M166.855 264.558C167.395 241.938 175.465 226.868 179.685 220.488C176.383 220.858 173.148 221.686 170.075 222.948C162.496 234.066 158.214 247.101 157.725 260.548C160.661 262.116 163.713 263.456 166.855 264.558Z" stroke="#232323" stroke-width="1.11" stroke-linecap="round" stroke-linejoin="round"/>
<path d="M170.075 222.918C163.891 225.468 158.543 229.695 154.634 235.123C150.725 240.552 148.412 246.965 147.955 253.638C150.9 256.345 154.184 258.658 157.725 260.518C158.215 247.071 162.496 234.036 170.075 222.918V222.918Z" stroke="#232323" stroke-width="1.11" stroke-linecap="round" stroke-linejoin="round"/>
<path d="M216.206 251.368C216.985 249.646 217.653 247.876 218.206 246.068C216.711 240.968 214.105 236.262 210.576 232.288L207.806 241.528L210.526 232.288C208.317 229.81 205.776 227.65 202.976 225.868L199.926 237.278L202.996 225.918C200.068 224.045 196.88 222.613 193.536 221.668L189.266 233.668C195.806 234.608 205.916 238.458 216.206 251.368Z" stroke="#232323" stroke-width="1.11" stroke-linecap="round" stroke-linejoin="round"/>
<path d="M219.575 257.688C219.575 257.168 219.575 256.688 219.575 256.128C219.575 252.723 219.09 249.336 218.135 246.068C217.583 247.876 216.915 249.646 216.135 251.368C215.706 252.425 215.198 253.448 214.615 254.428C214.675 254.488 213.755 255.938 213.815 255.998C213.875 256.058 212.815 257.798 212.815 257.738C210.435 261.968 203.255 270.068 203.375 270.068C203.255 270.068 199.495 273.478 197.445 275.198C193.696 278.304 189.721 281.128 185.555 283.648H185.815H185.555C181.458 286.124 177.221 288.361 172.865 290.348C176.363 291.449 180.008 292.008 183.675 292.008C184.285 292.008 184.885 292.008 185.485 292.008C192.805 288.018 204.455 278.918 219.575 257.688Z" stroke="#232323" stroke-width="1.11" stroke-linecap="round" stroke-linejoin="round"/>
<path d="M219.575 257.688C204.455 278.918 192.805 288.018 185.545 291.918C194.459 291.469 202.886 287.713 209.179 281.383C215.471 275.053 219.178 266.605 219.575 257.688Z" stroke="#232323" stroke-width="1.11" stroke-linecap="round" stroke-linejoin="round"/>
<path d="M155.695 278.488C160.132 284.066 166.131 288.195 172.925 290.348C177.281 288.361 181.518 286.124 185.615 283.648C177.075 285.228 163.715 281.308 155.695 278.488Z" stroke="#232323" stroke-width="1.11" stroke-linecap="round" stroke-linejoin="round"/>
<path d="M185.615 283.648C189.781 281.128 193.755 278.304 197.505 275.198C171.715 277.838 155.805 269.848 149.045 265.308C150.321 270.116 152.586 274.605 155.695 278.488C163.715 281.308 177.075 285.228 185.615 283.648Z" stroke="#232323" stroke-width="1.11" stroke-linecap="round" stroke-linejoin="round"/>
<path d="M197.505 275.198C199.555 273.478 201.405 271.758 203.095 270.058H201.195C201.335 270.188 201.475 270.318 201.605 270.458C201.475 270.318 201.335 270.188 201.195 270.058C186.465 269.848 175.265 267.568 166.855 264.578C154.565 260.318 150.135 255.738 147.955 253.688C147.895 254.508 147.855 255.318 147.855 256.148C147.857 259.246 148.256 262.332 149.045 265.328C155.805 269.848 171.715 277.838 197.505 275.198Z" stroke="#232323" stroke-width="1.11" stroke-linecap="round" stroke-linejoin="round"/>
<path d="M191.691 290.866C210.955 286.39 222.943 267.145 218.468 247.881C213.992 228.617 194.747 216.628 175.482 221.104C156.218 225.58 144.23 244.825 148.706 264.089C153.182 283.354 172.427 295.342 191.691 290.866Z" stroke="#232323" stroke-width="1.11" stroke-linecap="round" stroke-linejoin="round"/>
<path d="M221.987 140.6C216.387 147.367 210.554 154.6 204.487 162.3C198.654 170 192.937 178.05 187.337 186.45C181.737 194.85 176.37 203.483 171.237 212.35C166.104 220.983 161.437 229.617 157.237 238.25H221.987V140.6ZM263.287 88.45V238.25H290.587V272.9H263.287V331H221.987V272.9H115.587V242.8C120.254 232.533 126.437 220.75 134.137 207.45C142.07 194.15 150.82 180.5 160.387 166.5C169.954 152.5 180.104 138.733 190.837 125.2C201.57 111.667 212.304 99.4167 223.037 88.45H263.287Z" fill="#232323"/>
<path d="M390.979 412.897C365.866 412.897 350.771 390.616 345.412 371.02L345.232 370.332C344.947 369.382 344.856 368.384 344.965 367.398C345.074 366.412 345.381 365.458 345.867 364.593C346.353 363.728 347.009 362.97 347.795 362.364C348.581 361.759 349.481 361.318 350.441 361.068C351.401 360.819 352.402 360.765 353.383 360.911C354.365 361.057 355.306 361.399 356.152 361.918C356.998 362.436 357.731 363.12 358.307 363.928C358.883 364.736 359.29 365.652 359.503 366.62L359.639 367.128C363.711 382.042 374.801 399.089 392.592 398.107C395.937 397.988 399.219 397.169 402.228 395.702C405.236 394.235 407.903 392.152 410.056 389.59C419.814 378.398 424.18 354.064 423.21 341.79C423.118 341.002 423.186 340.204 423.41 339.443C423.633 338.682 424.008 337.974 424.511 337.362C425.014 336.749 425.636 336.244 426.339 335.877C427.042 335.51 427.812 335.288 428.602 335.225C429.392 335.162 430.188 335.259 430.94 335.51C431.692 335.761 432.386 336.162 432.98 336.687C433.574 337.212 434.056 337.852 434.397 338.568C434.738 339.284 434.931 340.061 434.965 340.853C436.093 354.515 434.604 383.881 421.168 399.28C417.729 403.33 413.489 406.623 408.714 408.953C403.94 411.283 398.735 412.599 393.427 412.818C392.603 412.875 391.78 412.897 390.979 412.897Z" fill="white"/>
<path d="M428.613 335.438C427.055 335.565 425.61 336.305 424.597 337.496C423.584 338.687 423.085 340.231 423.21 341.79C423.683 347.78 422.882 356.636 420.807 365.481C423.771 365.356 426.736 365.737 429.572 366.609C428.901 375.097 425.92 383.239 420.953 390.154C409.999 405.373 393.573 410.235 380.791 408.407C375.071 407.595 368.505 404.594 363 401.514C370.485 408.814 380.523 412.906 390.978 412.92C391.779 412.92 392.603 412.92 393.426 412.852C398.734 412.633 403.939 411.317 408.714 408.987C413.488 406.657 417.728 403.364 421.168 399.314C434.604 383.915 436.048 354.549 434.965 340.887C434.909 340.111 434.7 339.354 434.35 338.659C434 337.964 433.516 337.345 432.925 336.838C432.335 336.332 431.65 335.947 430.91 335.707C430.169 335.466 429.389 335.375 428.613 335.438Z" fill="#AC9573"/>
<path opacity="0.5" d="M428.613 335.438C427.055 335.565 425.61 336.305 424.597 337.496C423.584 338.687 423.085 340.231 423.21 341.79C423.683 347.78 422.882 356.636 420.807 365.481C423.771 365.356 426.736 365.737 429.572 366.609C428.901 375.097 425.92 383.239 420.953 390.154C409.999 405.373 393.573 410.235 380.791 408.407C375.071 407.595 368.505 404.594 363 401.514C370.485 408.814 380.523 412.906 390.978 412.92C391.779 412.92 392.603 412.92 393.426 412.852C398.734 412.633 403.939 411.317 408.714 408.987C413.488 406.657 417.728 403.364 421.168 399.314C434.604 383.915 436.048 354.549 434.965 340.887C434.909 340.111 434.7 339.354 434.35 338.659C434 337.964 433.516 337.345 432.925 336.838C432.335 336.332 431.65 335.947 430.91 335.707C430.169 335.466 429.389 335.375 428.613 335.438Z" fill="white"/>
<path d="M390.979 412.897C365.866 412.897 350.771 390.616 345.412 371.02L345.232 370.332C344.947 369.382 344.856 368.384 344.965 367.398C345.074 366.412 345.381 365.458 345.867 364.593C346.353 363.728 347.009 362.97 347.795 362.364C348.581 361.759 349.481 361.318 350.441 361.068C351.401 360.819 352.402 360.765 353.383 360.911C354.365 361.057 355.306 361.399 356.152 361.918C356.998 362.436 357.731 363.12 358.307 363.928C358.883 364.736 359.29 365.652 359.503 366.62L359.639 367.128C363.711 382.042 374.801 399.089 392.592 398.107C395.937 397.988 399.219 397.169 402.228 395.702C405.236 394.235 407.903 392.152 410.056 389.59C419.814 378.398 424.18 354.064 423.21 341.79C423.118 341.002 423.186 340.204 423.41 339.443C423.633 338.682 424.008 337.974 424.511 337.362C425.014 336.749 425.636 336.244 426.339 335.877C427.042 335.51 427.811 335.288 428.602 335.225C429.392 335.162 430.188 335.259 430.94 335.51C431.692 335.761 432.386 336.162 432.98 336.687C433.574 337.212 434.056 337.852 434.397 338.568C434.738 339.284 434.931 340.061 434.965 340.853C436.093 354.515 434.604 383.881 421.168 399.28C417.729 403.33 413.489 406.623 408.714 408.953C403.94 411.283 398.735 412.599 393.427 412.818C392.603 412.875 391.78 412.897 390.979 412.897Z" stroke="#232323" stroke-width="1.11" stroke-linecap="round" stroke-linejoin="round"/>
<path d="M376.494 397.633C377.092 394.869 370.481 399.19 364.941 403.218C366.99 404.949 369.196 406.486 371.53 407.809C373.504 404.594 375.918 400.296 376.494 397.633Z" fill="#AC9573" stroke="#232323" stroke-width="1.11" stroke-linecap="round" stroke-linejoin="round"/>
<path d="M390.978 412.897C391.779 412.897 392.602 412.897 393.426 412.83C395.823 412.695 398.204 412.359 400.545 411.826C397.431 407.764 393.144 402.394 391.914 401.988C390.504 401.514 387.785 408.43 386.273 412.627C387.835 412.809 389.406 412.899 390.978 412.897Z" fill="#AC9573" stroke="#232323" stroke-width="1.11" stroke-linecap="round" stroke-linejoin="round"/>
<path d="M359.639 367.128L359.503 366.62C359.29 365.652 358.883 364.736 358.307 363.928C357.731 363.12 356.998 362.436 356.152 361.918C355.306 361.399 354.365 361.057 353.383 360.911C352.402 360.765 351.401 360.819 350.441 361.068C349.481 361.318 348.581 361.759 347.795 362.364C347.009 362.97 346.353 363.728 345.867 364.593C345.381 365.458 345.074 366.412 344.965 367.398C344.856 368.384 344.947 369.382 345.232 370.332L345.412 371.02C347.294 377.902 350.183 384.468 353.986 390.503L367.423 384.107C363.899 378.921 361.268 373.182 359.639 367.128Z" fill="#AC9573" stroke="#232323" stroke-width="1.11" stroke-linecap="round" stroke-linejoin="round"/>
<path d="M421.167 399.28C422.199 398.085 423.156 396.827 424.032 395.512C419.768 394.057 413.382 392.049 411.013 392.263C408.204 392.523 412.017 401.548 413.98 405.801C416.623 403.916 419.035 401.728 421.167 399.28Z" fill="#AC9573" stroke="#232323" stroke-width="1.11" stroke-linecap="round" stroke-linejoin="round"/>
<path d="M421.405 375.172C420.954 376.074 426.47 380.091 430.193 382.674C431.374 379.16 432.324 375.572 433.036 371.934C428.524 372.837 421.845 374.292 421.405 375.172Z" fill="#AC9573" stroke="#232323" stroke-width="1.11" stroke-linecap="round" stroke-linejoin="round"/>
<path d="M434.864 358.486C435.112 355.271 435.236 352.203 435.247 349.382C431.367 351.514 426.764 354.47 426.764 356.411C426.764 358.351 431.073 358.588 434.864 358.486Z" fill="#AC9573" stroke="#232323" stroke-width="1.11" stroke-linecap="round" stroke-linejoin="round"/>
<path d="M374.123 271.201C374.123 271.201 363.169 302.925 369.069 327.609C370.817 334.832 374.209 341.554 378.982 347.251C383.755 352.947 389.779 357.464 396.585 360.449C396.585 360.449 380.576 366.09 384.175 374.766C387.774 383.441 401.583 377.857 406.073 375.048C410.563 372.239 416.17 363.823 417.016 358.204C417.518 355.334 417.707 352.418 417.58 349.506C417.58 349.506 435.822 347.543 448.175 337.435C448.175 337.435 459.13 346.133 466.993 344.452C474.856 342.771 486.081 328.726 484.953 316.102C483.825 303.478 476.548 303.489 472.103 305.407C469.796 306.279 467.692 307.615 465.921 309.333C465.921 309.333 472.374 301.436 465.921 290.527C464.017 287.327 461.409 284.602 458.295 282.56C455.181 280.517 451.643 279.21 447.95 278.737C447.95 278.737 444.565 260.766 434.479 254.031C424.394 247.296 388.44 240.324 374.123 271.201Z" fill="white"/>
<path d="M457.528 282.111C452.32 290.798 445.113 298.117 436.507 303.458C427.901 308.799 418.144 312.008 408.047 312.819C385.71 314.782 373.187 310.382 367.434 307.325C368.132 295.051 370.407 282.917 374.203 271.224C388.519 240.346 424.45 247.363 434.559 254.098C444.667 260.834 448.029 278.805 448.029 278.805C451.392 279.227 454.629 280.353 457.528 282.111ZM472.104 305.407C469.796 306.279 467.692 307.615 465.921 309.333C467.288 307.449 468.188 305.269 468.55 302.97C453.376 310.529 454.561 326.661 452.677 326.661C450.353 326.661 449.202 318.55 449.202 318.55C449.202 318.55 446.303 330.136 428.895 338.259C411.488 346.381 391.802 339.996 391.802 339.996C391.802 339.996 395.863 349.269 385.428 348.107C382.499 347.827 379.691 346.802 377.271 345.129C382.275 351.801 388.921 357.063 396.563 360.404C396.563 360.404 380.554 366.045 384.153 374.721C387.752 383.396 401.56 377.812 406.05 375.003C410.54 372.194 416.147 363.778 416.993 358.159C417.495 355.289 417.684 352.372 417.557 349.461C417.557 349.461 435.8 347.498 448.153 337.39C448.153 337.39 459.107 346.088 466.971 344.407C474.834 342.726 486.059 328.681 484.931 316.057C483.803 303.433 476.549 303.489 472.104 305.407Z" fill="#AC9573"/>
<path opacity="0.5" d="M457.528 282.111C452.32 290.798 445.113 298.117 436.507 303.458C427.901 308.799 418.144 312.008 408.047 312.819C385.71 314.782 373.187 310.382 367.434 307.325C368.132 295.051 370.407 282.917 374.203 271.224C388.519 240.346 424.45 247.363 434.559 254.098C444.667 260.834 448.029 278.805 448.029 278.805C451.392 279.227 454.629 280.353 457.528 282.111ZM472.104 305.407C469.796 306.279 467.692 307.615 465.921 309.333C467.288 307.449 468.188 305.269 468.55 302.97C453.376 310.529 454.561 326.661 452.677 326.661C450.353 326.661 449.202 318.55 449.202 318.55C449.202 318.55 446.303 330.136 428.895 338.259C411.488 346.381 391.802 339.996 391.802 339.996C391.802 339.996 395.863 349.269 385.428 348.107C382.499 347.827 379.691 346.802 377.271 345.129C382.275 351.801 388.921 357.063 396.563 360.404C396.563 360.404 380.554 366.045 384.153 374.721C387.752 383.396 401.56 377.812 406.05 375.003C410.54 372.194 416.147 363.778 416.993 358.159C417.495 355.289 417.684 352.372 417.557 349.461C417.557 349.461 435.8 347.498 448.153 337.39C448.153 337.39 459.107 346.088 466.971 344.407C474.834 342.726 486.059 328.681 484.931 316.057C483.803 303.433 476.549 303.489 472.104 305.407Z" fill="white"/>
<path d="M417.636 349.529C411.582 349.69 405.571 348.461 400.066 345.936C394.56 343.411 389.707 339.658 385.879 334.964" stroke="#232323" stroke-width="1.11" stroke-linecap="round" stroke-linejoin="round"/>
<path d="M374.123 271.201C374.123 271.201 363.169 302.925 369.069 327.609C370.817 334.832 374.209 341.554 378.982 347.251C383.755 352.947 389.779 357.464 396.585 360.449C396.585 360.449 380.576 366.09 384.175 374.766C387.774 383.441 401.583 377.857 406.073 375.048C410.563 372.239 416.17 363.823 417.016 358.204C417.518 355.334 417.707 352.418 417.58 349.506C417.58 349.506 435.822 347.543 448.175 337.435C448.175 337.435 459.13 346.133 466.993 344.452C474.856 342.771 486.081 328.726 484.953 316.102C483.825 303.478 476.548 303.489 472.103 305.407C469.796 306.279 467.692 307.615 465.921 309.333C465.921 309.333 472.374 301.436 465.921 290.527C464.017 287.327 461.409 284.602 458.295 282.56C455.181 280.517 451.643 279.21 447.95 278.737C447.95 278.737 444.565 260.766 434.479 254.031C424.394 247.296 388.44 240.324 374.123 271.201Z" stroke="#232323" stroke-width="1.11" stroke-linecap="round" stroke-linejoin="round"/>
<path d="M486.787 209.55C486.787 250.383 479.32 281.767 464.387 303.7C449.454 325.4 428.804 336.25 402.437 336.25C376.07 336.25 355.42 325.4 340.487 303.7C325.554 281.767 318.087 250.383 318.087 209.55C318.087 189.25 319.954 171.283 323.687 155.65C327.654 139.783 333.254 126.483 340.487 115.75C347.954 105.017 356.82 96.85 367.087 91.25C377.587 85.65 389.37 82.85 402.437 82.85C428.804 82.85 449.454 93.8167 464.387 115.75C479.32 137.45 486.787 168.717 486.787 209.55ZM443.037 209.55C443.037 196.95 442.337 185.167 440.937 174.2C439.537 163.233 437.204 153.783 433.937 145.85C430.904 137.683 426.82 131.267 421.687 126.6C416.554 121.933 410.137 119.6 402.437 119.6C394.737 119.6 388.204 121.933 382.837 126.6C377.704 131.267 373.504 137.683 370.237 145.85C367.204 153.783 364.987 163.233 363.587 174.2C362.42 185.167 361.837 196.95 361.837 209.55C361.837 222.15 362.42 233.933 363.587 244.9C364.987 255.867 367.204 265.433 370.237 273.6C373.504 281.533 377.704 287.833 382.837 292.5C388.204 297.167 394.737 299.5 402.437 299.5C410.137 299.5 416.554 297.167 421.687 292.5C426.82 287.833 430.904 281.533 433.937 273.6C437.204 265.433 439.537 255.867 440.937 244.9C442.337 233.933 443.037 222.15 443.037 209.55Z" fill="#232323"/>
<path d="M465.923 309.378C465.923 309.378 460.022 313.315 457.225 325.386" stroke="#232323" stroke-width="1.11" stroke-linecap="round" stroke-linejoin="round"/>
<path d="M476.741 314.545C476.053 316.598 474.169 317.828 472.545 317.275C470.92 316.722 470.175 314.613 470.864 312.559C471.552 310.506 473.436 309.276 475.06 309.829C476.685 310.382 477.441 312.492 476.741 314.545Z" fill="white" stroke="#232323" stroke-width="1.11" stroke-linecap="round" stroke-linejoin="round"/>
<path d="M482.551 318.2C481.863 320.253 479.979 321.483 478.354 320.93C476.729 320.377 475.974 318.268 476.673 316.215C477.372 314.161 479.245 312.932 480.87 313.484C482.494 314.037 483.25 316.147 482.551 318.2Z" fill="white" stroke="#232323" stroke-width="1.11" stroke-linecap="round" stroke-linejoin="round"/>
<path d="M483.793 323.672C483.567 324.049 483.24 324.355 482.847 324.554C482.455 324.753 482.015 324.836 481.577 324.795C481.139 324.753 480.722 324.588 480.375 324.319C480.027 324.05 479.763 323.688 479.612 323.275C479.462 322.862 479.432 322.414 479.526 321.985C479.62 321.555 479.834 321.161 480.143 320.848C480.452 320.535 480.843 320.317 481.272 320.217C481.7 320.118 482.148 320.142 482.563 320.287C483.162 320.587 483.624 321.105 483.852 321.734C484.081 322.364 484.06 323.057 483.793 323.672Z" fill="white" stroke="#232323" stroke-width="1.11" stroke-linecap="round" stroke-linejoin="round"/>
<path d="M476.38 331.185C474.349 334.852 470.288 336.476 467.298 334.818C464.309 333.159 463.541 328.861 465.572 325.195C467.603 321.528 471.664 319.904 474.654 321.562C477.643 323.22 478.41 327.519 476.38 331.185Z" fill="white" stroke="#232323" stroke-width="1.11" stroke-linecap="round" stroke-linejoin="round"/>
<path d="M396.586 360.472C400.369 362.227 404.666 362.528 408.657 361.318" stroke="#232323" stroke-width="1.11" stroke-linecap="round" stroke-linejoin="round"/>
<path d="M384.232 374.788C384.232 374.788 385.361 370.016 392.366 366.654" stroke="#232323" stroke-width="1.11" stroke-linecap="round" stroke-linejoin="round"/>
<path d="M391.25 379.008C391.25 379.008 394.059 372.239 398.831 369.181" stroke="#232323" stroke-width="1.11" stroke-linecap="round" stroke-linejoin="round"/>
<path d="M351.381 255.204C351.381 255.204 339.592 271.765 337.911 288.609C336.23 305.452 338.193 316.677 343.247 320.896C348.301 325.116 353.344 323.423 356.153 319.486C358.962 315.549 354.472 301.797 354.472 301.797C354.472 301.797 359.244 288.609 366.543 279.347C373.842 270.084 375.241 268.674 375.241 268.674C375.241 268.674 362.606 254.358 351.381 255.204Z" fill="white"/>
<path d="M351.38 255.204C348.808 259.005 346.526 262.995 344.555 267.14C350.195 269.396 358.939 274.022 364.489 282.212C365.166 281.231 365.865 280.26 366.588 279.347C373.887 270.084 375.286 268.674 375.286 268.674C375.286 268.674 362.605 254.358 351.38 255.204Z" fill="#AC9573"/>
<path opacity="0.5" d="M351.38 255.204C348.808 259.005 346.526 262.995 344.555 267.14C350.195 269.396 358.939 274.022 364.489 282.212C365.166 281.231 365.865 280.26 366.588 279.347C373.887 270.084 375.286 268.674 375.286 268.674C375.286 268.674 362.605 254.358 351.38 255.204Z" fill="white"/>
<path d="M351.381 255.204C351.381 255.204 339.592 271.765 337.911 288.609C336.23 305.452 338.193 316.677 343.247 320.896C348.301 325.116 353.344 323.423 356.153 319.486C358.962 315.549 354.472 301.797 354.472 301.797C354.472 301.797 359.244 288.609 366.543 279.347C373.842 270.084 375.241 268.674 375.241 268.674C375.241 268.674 362.606 254.358 351.381 255.204Z" stroke="#232323" stroke-width="1.11" stroke-linecap="round" stroke-linejoin="round"/>
<path d="M343.247 320.896C341.869 317.216 341.199 313.308 341.273 309.378" stroke="#232323" stroke-width="1.11" stroke-linecap="round" stroke-linejoin="round"/>
<path d="M350.816 322.577C350.816 322.577 348.018 317.805 347.736 309.66" stroke="#232323" stroke-width="1.11" stroke-linecap="round" stroke-linejoin="round"/>
<path d="M355.037 285.235C355.037 282.28 349.396 276.504 341.555 273.954C340.501 276.702 339.631 279.518 338.949 282.381C341.995 282.903 344.954 283.848 347.738 285.19C351.946 287.481 355.037 288.609 355.037 285.235Z" fill="#AC9573" stroke="#232323" stroke-width="1.11" stroke-linecap="round" stroke-linejoin="round"/>
<path d="M350.693 256.208C348.874 258.98 347.202 261.846 345.684 264.793C348.058 265.421 350.335 266.37 352.453 267.614C361.151 272.657 362.832 273.255 360.034 265.922C358.341 261.319 354.303 258.194 350.693 256.208Z" fill="#AC9573" stroke="#232323" stroke-width="1.11" stroke-linecap="round" stroke-linejoin="round"/>
<path d="M443.721 247.025C443.721 247.025 457.078 262.345 460.406 278.952C463.734 295.558 462.888 306.919 458.263 311.6C453.637 316.282 448.459 315.109 445.278 311.465C442.096 307.821 445.278 293.708 445.278 293.708C445.278 293.708 439.231 281.039 431.063 272.532C422.895 264.026 421.35 262.774 421.35 262.774C421.35 262.774 432.462 247.284 443.721 247.025Z" fill="white"/>
<path d="M443.721 247.025C432.439 247.284 421.293 262.819 421.293 262.819C421.293 262.819 422.827 264.083 431.006 272.578C432.536 274.189 433.975 275.883 435.316 277.654C439.585 270.444 445.683 264.489 452.994 260.394C450.304 255.672 447.201 251.198 443.721 247.025Z" fill="#AC9573"/>
<path opacity="0.5" d="M443.721 247.025C432.439 247.284 421.293 262.819 421.293 262.819C421.293 262.819 422.827 264.083 431.006 272.578C432.536 274.189 433.975 275.883 435.316 277.654C439.585 270.444 445.683 264.489 452.994 260.394C450.304 255.672 447.201 251.198 443.721 247.025Z" fill="white"/>
<path d="M443.721 247.025C443.721 247.025 457.078 262.345 460.406 278.952C463.734 295.558 462.888 306.919 458.263 311.6C453.637 316.282 448.459 315.109 445.278 311.465C442.096 307.821 445.278 293.708 445.278 293.708C445.278 293.708 439.231 281.039 431.063 272.532C422.895 264.026 421.35 262.774 421.35 262.774C421.35 262.774 432.462 247.284 443.721 247.025Z" stroke="#232323" stroke-width="1.11" stroke-linecap="round" stroke-linejoin="round"/>
<path d="M458.262 311.6C459.273 307.807 459.556 303.857 459.097 299.958" stroke="#232323" stroke-width="1.11" stroke-linecap="round" stroke-linejoin="round"/>
<path d="M450.883 314.015C450.883 314.015 453.218 308.994 452.699 300.86" stroke="#232323" stroke-width="1.11" stroke-linecap="round" stroke-linejoin="round"/>
<path d="M443.033 277.271C442.751 274.326 447.794 268.031 455.352 264.771C456.659 267.4 457.79 270.114 458.737 272.893C455.762 273.723 452.915 274.957 450.275 276.56C446.327 279.211 443.371 280.587 443.033 277.271Z" fill="#AC9573" stroke="#232323" stroke-width="1.11" stroke-linecap="round" stroke-linejoin="round"/>
<path d="M444.498 247.961C446.573 250.522 448.509 253.192 450.297 255.96C447.987 256.815 445.805 257.98 443.81 259.423C435.653 265.312 434.029 266.034 436.104 258.498C437.402 253.805 441.102 250.285 444.498 247.961Z" fill="#AC9573" stroke="#232323" stroke-width="1.11" stroke-linecap="round" stroke-linejoin="round"/>
<path d="M350.274 240.877C350.274 240.877 346.799 252.598 348.108 257.37C349.417 262.142 355.486 257.81 361.567 263.011C367.648 268.212 373.277 277.598 396.303 279.335C419.328 281.073 433.227 268.652 438.044 261.702C442.862 254.753 442.388 246.506 450.635 246.077C458.881 245.649 451.943 229.572 449.337 226.966C449.337 226.966 465.402 203.083 465.402 197.003C465.402 190.922 450.206 192.219 431.558 197.871C431.558 197.871 417.659 190.482 392.467 194.825C367.275 199.169 359.897 206.558 359.897 206.558C359.897 206.558 328.625 210.462 326.459 214.365C324.293 218.268 330.735 234.796 350.274 240.877Z" fill="white"/>
<path d="M450.602 246.089C458.86 245.649 451.911 229.584 449.305 226.978C449.305 226.978 452.362 222.465 455.803 216.824C446.473 211.951 437.312 209.243 434.876 211.985C429.63 217.873 432.484 229.155 434.876 240.188C437.267 251.222 427.712 255.926 421.033 265.47C414.354 275.014 404.822 264.511 404.822 264.511C401.437 278.354 387.166 269.283 387.166 269.283C376.2 265.899 357.597 254.978 361.41 247.341C365.223 239.703 366.182 232.551 359.504 226.357C352.825 220.164 326.189 215.008 326.189 215.008C324.79 219.712 331.548 235.123 350.287 240.955C350.287 240.955 346.812 252.677 348.121 257.449C349.429 262.221 355.499 257.889 361.579 263.09C367.66 268.291 373.29 277.677 396.315 279.414C419.341 281.152 433.24 268.731 438.057 261.781C442.874 254.832 442.344 246.517 450.602 246.089Z" fill="#AC9573"/>
<path opacity="0.5" d="M450.602 246.089C458.86 245.649 451.911 229.584 449.305 226.978C449.305 226.978 452.362 222.465 455.803 216.824C446.473 211.951 437.312 209.243 434.876 211.985C429.63 217.873 432.484 229.155 434.876 240.188C437.267 251.222 427.712 255.926 421.033 265.47C414.354 275.014 404.822 264.511 404.822 264.511C401.437 278.354 387.166 269.283 387.166 269.283C376.2 265.899 357.597 254.978 361.41 247.341C365.223 239.703 366.182 232.551 359.504 226.357C352.825 220.164 326.189 215.008 326.189 215.008C324.79 219.712 331.548 235.123 350.287 240.955C350.287 240.955 346.812 252.677 348.121 257.449C349.429 262.221 355.499 257.889 361.579 263.09C367.66 268.291 373.29 277.677 396.315 279.414C419.341 281.152 433.24 268.731 438.057 261.781C442.874 254.832 442.344 246.517 450.602 246.089Z" fill="white"/>
<path d="M416.633 248.706C416.961 251.459 410.846 254.426 403.005 255.339C395.165 256.253 388.531 254.764 388.204 251.955C387.877 249.146 393.991 246.247 401.843 245.333C409.695 244.419 416.318 245.965 416.633 248.706Z" fill="#AC9573"/>
<path opacity="0.5" d="M416.633 248.706C416.961 251.459 410.846 254.426 403.005 255.339C395.165 256.253 388.531 254.764 388.204 251.955C387.877 249.146 393.991 246.247 401.843 245.333C409.695 244.419 416.318 245.965 416.633 248.706Z" fill="white"/>
<path d="M350.274 240.877C350.274 240.877 346.799 252.598 348.108 257.37C349.417 262.142 355.486 257.81 361.567 263.011C367.648 268.212 373.277 277.598 396.303 279.335C419.328 281.073 433.227 268.652 438.044 261.702C442.862 254.753 442.388 246.506 450.635 246.077C458.881 245.649 451.943 229.572 449.337 226.966C449.337 226.966 465.402 203.083 465.402 197.003C465.402 190.922 450.206 192.219 431.558 197.871C431.558 197.871 417.659 190.482 392.467 194.825C367.275 199.169 359.897 206.558 359.897 206.558C359.897 206.558 328.625 210.462 326.459 214.365C324.293 218.268 330.735 234.796 350.274 240.877Z" stroke="#232323" stroke-width="1.11" stroke-miterlimit="10"/>
<path d="M440.099 206.129C428.817 213.711 432.8 221.292 437.842 225.5C440.922 228.072 445.886 227.756 449.282 227.034C449.282 227.034 465.347 203.151 465.347 197.07C465.358 197.014 451.324 198.492 440.099 206.129Z" fill="#AC9573" stroke="#232323" stroke-width="1.11" stroke-miterlimit="10"/>
<path d="M326.178 214.929C324.779 219.633 331.536 235.044 350.275 240.877C350.275 240.877 364.58 239.478 359.808 227.97C355.352 217.23 332.822 214.557 326.178 214.929Z" fill="#AC9573" stroke="#232323" stroke-width="1.11" stroke-miterlimit="10"/>
<path d="M392.401 194.848C390.923 195.107 389.502 195.378 388.137 195.649C390.393 207.043 394.105 226.019 397.421 226.019C400.738 226.019 403.277 205.216 404.36 193.562C400.35 193.731 396.355 194.16 392.401 194.848Z" fill="#AC9573" stroke="#232323" stroke-width="1.11" stroke-miterlimit="10"/>
<path d="M379.461 222.634C382.913 220.604 382.394 205.34 381.841 197.059C378.278 197.944 374.771 199.041 371.338 200.342C372.59 208.092 375.772 224.8 379.461 222.634Z" fill="#AC9573" stroke="#232323" stroke-width="1.11" stroke-miterlimit="10"/>
<path d="M412.866 215.617C416.397 216.858 418.383 204.166 419.499 194.397C415.933 193.815 412.327 193.51 408.714 193.483C408.601 201.504 409.041 214.275 412.866 215.617Z" fill="#AC9573" stroke="#232323" stroke-width="1.11" stroke-miterlimit="10"/>
<path d="M408.137 259.547C404.842 258.681 401.341 259.113 398.356 260.755C398.225 260.83 398.114 260.935 398.031 261.062C397.948 261.188 397.895 261.332 397.878 261.482C397.86 261.632 397.878 261.784 397.93 261.926C397.981 262.068 398.065 262.196 398.175 262.3L404.166 267.941C404.278 268.046 404.414 268.123 404.562 268.165C404.71 268.208 404.866 268.214 405.017 268.185C405.168 268.155 405.309 268.09 405.43 267.994C405.551 267.899 405.647 267.776 405.711 267.636L408.78 260.867C408.835 260.739 408.861 260.601 408.858 260.462C408.855 260.322 408.821 260.186 408.76 260.06C408.699 259.935 408.612 259.824 408.505 259.736C408.397 259.647 408.272 259.583 408.137 259.547Z" fill="#AC9573" stroke="#232323" stroke-width="1.11" stroke-linecap="round" stroke-linejoin="round"/>
<path d="M393.901 250.127C394.725 252.305 394.398 254.448 393.168 254.911C391.938 255.373 390.269 253.997 389.434 251.831C388.599 249.665 388.937 247.51 390.167 247.048C391.397 246.585 393.066 247.961 393.901 250.127Z" fill="#232323"/>
<path d="M410.235 248.582C409.807 250.838 410.506 252.925 411.804 253.162C413.101 253.399 414.5 251.752 414.929 249.462C415.357 247.172 414.658 245.13 413.36 244.881C412.063 244.633 410.664 246.303 410.235 248.582Z" fill="#232323"/>
<path d="M405.711 267.625C405.711 267.625 397.701 278.5 390.402 267.557" stroke="#232323" stroke-width="1.11" stroke-linecap="round" stroke-linejoin="round"/>
<path d="M404.168 267.93C404.168 267.93 409.493 273.446 415.111 270.355C420.729 267.264 417.367 262.458 417.367 262.458" stroke="#232323" stroke-width="1.11" stroke-linecap="round" stroke-linejoin="round"/>
<path d="M379.742 241.441C379.742 241.441 381.705 234.423 390.967 236.104" stroke="#232323" stroke-width="3.34" stroke-linecap="round" stroke-linejoin="round"/>
<path d="M407.811 234.988C407.811 234.988 414.828 230.78 421.281 237.515" stroke="#232323" stroke-width="3.34" stroke-linecap="round" stroke-linejoin="round"/>
<path d="M374.406 260.247L381.141 261.928" stroke="#232323" stroke-width="1.11" stroke-miterlimit="10" stroke-linecap="round"/>
<path d="M380.295 264.455L374.406 265.583" stroke="#232323" stroke-width="1.11" stroke-miterlimit="10" stroke-linecap="round"/>
<path d="M381.422 267.546L377.203 269.791" stroke="#232323" stroke-width="1.11" stroke-miterlimit="10" stroke-linecap="round"/>
<path d="M424.09 257.156L429.99 255.757" stroke="#232323" stroke-width="1.11" stroke-miterlimit="10" stroke-linecap="round"/>
<path d="M425.219 259.965H429.145" stroke="#232323" stroke-width="1.11" stroke-miterlimit="10" stroke-linecap="round"/>
<path d="M426.053 262.774L431.389 264.184" stroke="#232323" stroke-width="1.11" stroke-miterlimit="10" stroke-linecap="round"/>
<path d="M563.41 223.04C563.41 223.04 560.96 215.09 553.82 212.23C548.82 210.23 543.15 210.77 538 211.66C528.42 213.33 520.06 217.14 511 220.39C511 220.39 514.88 218.96 530.79 226.72C536.65 229.57 543.35 231.79 550.05 231.64C555.42 231.52 563.68 229.98 563.41 223.04Z" fill="#AC9573"/>
<path d="M564.269 199.67C564.269 199.67 564.269 191.34 558.269 186.55C554.089 183.21 548.469 182.06 543.269 181.43C533.619 180.26 524.509 181.49 514.869 181.98C514.869 181.98 518.999 181.74 531.989 193.76C536.779 198.18 542.549 202.24 548.989 204.03C554.169 205.47 562.509 206.39 564.269 199.67Z" fill="#AC9573"/>
<path d="M580.68 230.58C580.68 230.58 574.19 225.37 574.17 217.68C574.17 212.33 576.74 207.22 579.47 202.77C584.55 194.47 591.17 188.11 597.55 180.86C597.55 180.86 594.79 183.94 596.13 201.59C596.63 208.09 596.21 215.14 593.6 221.31C591.55 226.27 587.08 233.38 580.68 230.58Z" fill="#AC9573"/>
<path d="M603.68 243.36C603.68 243.36 602.76 235.09 608.18 229.63C611.94 225.84 617.39 224.04 622.46 222.82C631.92 220.54 641.1 220.71 650.73 220.08C650.73 220.08 646.61 220.31 635.09 233.75C630.85 238.75 625.58 243.4 619.37 245.93C614.42 247.96 606.24 249.83 603.68 243.36Z" fill="#AC9573"/>
<path d="M602.211 213.87C602.211 213.87 593.961 212.74 590.001 206.15C587.241 201.57 586.831 195.85 586.881 190.63C586.981 180.91 589.401 172.04 591.151 162.55C591.151 162.55 590.361 166.61 600.581 181.06C604.341 186.39 607.581 192.65 608.581 199.29C609.291 204.62 609.101 213.01 602.211 213.87Z" fill="#AC9573"/>
<path d="M625.95 199.06C625.95 199.06 631.88 204.9 639.52 204.06C644.83 203.45 649.61 200.28 653.71 197.06C661.35 191.06 666.9 183.72 673.35 176.55C673.35 176.55 670.62 179.64 652.93 180.37C646.42 180.64 639.47 181.87 633.64 185.19C628.96 187.81 622.43 193.08 625.95 199.06Z" fill="#AC9573"/>
<path d="M619.081 193.29C619.081 193.29 627.361 194.12 632.761 188.65C636.521 184.84 638.261 179.38 639.431 174.29C641.611 164.82 641.351 155.63 641.871 146C641.871 146 641.691 150.12 628.361 161.78C623.461 166.07 618.811 171.39 616.361 177.62C614.371 182.63 612.581 190.83 619.081 193.29Z" fill="#AC9573"/>
<path d="M589.501 273.9L575.211 238.71L558.721 198.02" stroke="#232323" stroke-width="1.11" stroke-linecap="round" stroke-linejoin="round"/>
<path d="M592.801 267.85L607.101 218.91L622.491 188.67" stroke="#232323" stroke-width="1.11" stroke-linecap="round" stroke-linejoin="round"/>
<path d="M598.301 248.6L612.601 240.36" stroke="#232323" stroke-width="1.11" stroke-linecap="round" stroke-linejoin="round"/>
<path d="M607.099 218.91L599.949 202.97" stroke="#232323" stroke-width="1.11" stroke-linecap="round" stroke-linejoin="round"/>
<path d="M616.039 203.05L633.489 195.27" stroke="#232323" stroke-width="1.11" stroke-linecap="round" stroke-linejoin="round"/>
<path d="M577.961 245.3L584.011 221.11" stroke="#232323" stroke-width="1.11" stroke-linecap="round" stroke-linejoin="round"/>
<path d="M569.941 226.92L555.971 219.46" stroke="#232323" stroke-width="1.11" stroke-linecap="round" stroke-linejoin="round"/>
<path d="M596.841 291.49H584.921C582.972 291.489 581.085 290.809 579.584 289.565C578.084 288.322 577.064 286.594 576.701 284.68L572.461 262.35H609.301L605.071 284.68C604.706 286.595 603.684 288.323 602.182 289.566C600.679 290.809 598.791 291.49 596.841 291.49Z" fill="#232323" stroke="#232323" stroke-width="1.11" stroke-linecap="round" stroke-linejoin="round"/>
<path d="M619.987 140.6C614.387 147.367 608.554 154.6 602.487 162.3C596.654 170 590.937 178.05 585.337 186.45C579.737 194.85 574.37 203.483 569.237 212.35C564.104 220.983 559.437 229.617 555.237 238.25H619.987V140.6ZM661.287 88.45V238.25H688.587V272.9H661.287V331H619.987V272.9H513.587V242.8C518.254 232.533 524.437 220.75 532.137 207.45C540.07 194.15 548.82 180.5 558.387 166.5C567.954 152.5 578.104 138.733 588.837 125.2C599.57 111.667 610.304 99.4167 621.037 88.45H661.287Z" fill="#232323"/>
</svg>
