<svg width="68" height="67" viewBox="0 0 68 67" fill="none" xmlns="http://www.w3.org/2000/svg">
<path d="M59.8065 49.3835V66H1V60.5426M59.8065 36.4323V20.0602H44.5168M1 25.2732V20.0602H8.37041M1 25.2732H54.5531V36.4323M1 25.2732V60.5426M54.5531 49.3835V60.5426H1M44.5168 20.0602L47.4179 6.6203L23.6601 1L22.7976 5.23559M44.5168 20.0602H39.6555M22.7976 5.23559H8.37041V20.0602M22.7976 5.23559L21.7378 10.1228M8.37041 20.0602H13.3102M19.5828 20.0602H13.3102M19.5828 20.0602L21.7378 10.1228M19.5828 20.0602H24.3658M13.3102 20.0602V12.7293L15.7408 10.1228H21.7378M24.3658 20.0602L26.6396 10.1228L30.3248 7.84211L39.2634 10.1228L41.1452 12.7293L39.6555 20.0602M24.3658 20.0602H39.6555M55.2588 49.3835H67.0985V36.4323H53.6122C50.8679 36.4323 45.9282 37.198 45.9282 42.8672C45.9282 48.5363 51.0247 49.3835 53.6122 49.3835H55.2588Z" stroke="#AC9573"/>
<path d="M52.9558 43.0299C52.9558 43.4467 52.6353 43.7517 52.2796 43.7517C51.924 43.7517 51.6035 43.4467 51.6035 43.0299C51.6035 42.6131 51.924 42.3081 52.2796 42.3081C52.6353 42.3081 52.9558 42.6131 52.9558 43.0299Z" stroke="#AC9573"/>
</svg>
