<svg width="91" height="66" viewBox="0 0 91 66" fill="none" xmlns="http://www.w3.org/2000/svg">
<path d="M3.46407 49.5441V1H77.4742L71.8421 11.6047H52.2175V29.9802M3.46407 49.5441C2.46671 49.9402 1 51.1897 1 53.0181C1 54.8465 2.46671 56.1568 3.46407 56.5834H17.4565M3.46407 49.5441H19.6565M52.2175 49.5441H58.1137M52.2175 49.5441V29.9802M52.2175 49.5441H34.441M85.0424 49.5441H87.1545C88.0345 49.5441 89.7946 50.2389 89.7946 53.0181C89.7946 55.7972 88.0345 56.553 87.1545 56.5834H80.7303H80.6423M85.0424 49.5441V32.6314M85.0424 49.5441H78.4422M58.1137 49.5441V29.9802M58.1137 49.5441H63.6578M58.1137 29.9802V17.547H72.6341L76.9462 22.0266M58.1137 29.9802H52.2175M64.4498 38.4823H68.1459M85.0424 32.6314V30.4373L76.9462 22.0266M85.0424 32.6314H67.5299C66.7086 32.6009 65.0659 32.1194 65.0659 30.4373C65.0659 28.7552 65.0659 25.3482 65.0659 23.855C65.1832 23.2456 65.8403 22.0266 67.5299 22.0266C69.2196 22.0266 74.5115 22.0266 76.9462 22.0266M61.4578 56.5834H36.641" stroke="#AC9573"/>
<path d="M30.0685 55.9437C30.0685 57.7053 28.6986 59.1005 27.0484 59.1005C25.3983 59.1005 24.0283 57.7053 24.0283 55.9437C24.0283 54.1821 25.3982 52.7869 27.0484 52.7869C28.6986 52.7869 30.0685 54.1821 30.0685 55.9437Z" stroke="#AC9573"/>
<path d="M74.0695 55.9437C74.0695 57.7053 72.6996 59.1005 71.0494 59.1005C69.3992 59.1005 68.0293 57.7053 68.0293 55.9437C68.0293 54.1821 69.3992 52.7869 71.0494 52.7869C72.6996 52.7869 74.0695 54.1821 74.0695 55.9437Z" stroke="#AC9573"/>
<path d="M36.2287 55.9437C36.2287 61.2395 32.1008 65.4999 27.0484 65.4999C21.9961 65.4999 17.8682 61.2395 17.8682 55.9437C17.8682 50.6478 21.9961 46.3875 27.0484 46.3875C32.1008 46.3875 36.2287 50.6478 36.2287 55.9437Z" stroke="#AC9573"/>
<path d="M80.2297 55.9437C80.2297 61.2395 76.1018 65.4999 71.0494 65.4999C65.9971 65.4999 61.8691 61.2395 61.8691 55.9437C61.8691 50.6478 65.9971 46.3875 71.0494 46.3875C76.1018 46.3875 80.2297 50.6478 80.2297 55.9437Z" stroke="#AC9573"/>
</svg>
