<svg width="70" height="80" viewBox="0 0 70 80" fill="none" xmlns="http://www.w3.org/2000/svg">
<path d="M48.9114 36.2324C48.9114 44.2429 42.6651 50.7039 34.9997 50.7039C27.3342 50.7039 21.0879 44.2429 21.0879 36.2324C21.0879 28.2219 27.3342 21.761 34.9997 21.761C42.6651 21.761 48.9114 28.2219 48.9114 36.2324Z" stroke="#AC9573"/>
<path d="M53.8533 36.232C53.8533 47.0774 45.3948 55.8365 35.0004 55.8365C24.606 55.8365 16.1475 47.0774 16.1475 36.232C16.1475 25.3866 24.606 16.6274 35.0004 16.6274C45.3948 16.6274 53.8533 25.3866 53.8533 36.232Z" stroke="#AC9573"/>
<path d="M34.5246 30.3117C34.6749 29.8522 35.3249 29.8522 35.4751 30.3117L36.4256 33.2183C36.6272 33.835 37.2025 34.2521 37.8513 34.2521L40.9134 34.2521C41.3985 34.2521 41.5994 34.8735 41.2061 35.1575L38.7397 36.938C38.2106 37.32 37.9892 38.0002 38.192 38.6204L39.1366 41.5093C39.2871 41.9694 38.7612 42.3534 38.3687 42.0701L35.8779 40.2719C35.3537 39.8934 34.6461 39.8934 34.1219 40.2719L31.631 42.0701C31.2386 42.3535 30.7127 41.9694 30.8631 41.5093L31.8078 38.6204C32.0106 38.0002 31.7891 37.32 31.2601 36.938L28.7937 35.1575C28.4004 34.8735 28.6012 34.2521 29.0864 34.2521L32.1485 34.2521C32.7973 34.2521 33.3726 33.835 33.5742 33.2183L34.5246 30.3117Z" stroke="#AC9573"/>
<path d="M34.8633 10.9156L35.0363 10.9812L35.2114 10.9156L42.2872 8.26301L47.1236 14.2611L47.2366 14.4013L47.4136 14.4342L54.8314 15.8148L56.1352 23.5348L56.1646 23.7089L56.296 23.8241L62.0639 28.88L59.4767 36.2448L59.4177 36.4126L59.4755 36.5789L62.0365 43.9515L56.2596 48.9784L56.1217 49.0984L56.0907 49.2784L54.7624 56.9801L47.3532 58.3305L47.1698 58.3639L47.0511 58.5101L42.2013 64.4809L35.1367 61.8027L34.9637 61.7371L34.7886 61.8027L27.7128 64.4553L22.8764 58.4572L22.7634 58.317L22.5864 58.2841L15.1686 56.9035L13.8648 49.1835L13.8354 49.0094L13.704 48.8942L7.93607 43.8383L10.5233 36.4735L10.5823 36.3057L10.5245 36.1394L7.96347 28.7668L13.7405 23.7399L13.8783 23.6199L13.9093 23.4399L15.2376 15.7382L22.6468 14.3878L22.8302 14.3544L22.9489 14.2082L27.7987 8.23736L34.8633 10.9156Z" stroke="#AC9573"/>
<path d="M27.1766 64.7491L19.7817 78.5799L17.6977 71.1654L10.7061 73.2329L19.0422 58.0476" stroke="#AC9573"/>
<path d="M42.8234 64.7491L50.2183 78.5799L52.3023 71.1654L59.2939 73.2329L50.9578 58.0476" stroke="#AC9573"/>
<path d="M20.5879 66.6031L23.882 60.6145" stroke="#AC9573"/>
<path d="M49.4121 66.6031L46.118 60.6145" stroke="#AC9573"/>
</svg>
