<svg width="194" height="42" viewBox="0 0 194 42" fill="none" xmlns="http://www.w3.org/2000/svg">
<line x1="3.41421" y1="10.8877" x2="32.3112" y2="39.7847" stroke="#AC9573" stroke-width="2" stroke-linecap="round"/>
<line x1="1" y1="-1" x2="41.8666" y2="-1" transform="matrix(0.706332 -0.70788 0.706332 0.70788 10.8682 42)" stroke="#AC9573" stroke-width="2" stroke-linecap="round"/>
<line x1="1" y1="-1" x2="41.8666" y2="-1" transform="matrix(0.706332 0.70788 -0.706332 0.70788 10.8682 2)" stroke="#AC9573" stroke-width="2" stroke-linecap="round"/>
<line x1="2" y1="30.9302" x2="30.897" y2="2.0332" stroke="#AC9573" stroke-width="2" stroke-linecap="round"/>
<path d="M54.112 35V10.052H70.132V13.904H58.648V20.06H68.872V23.84H58.648V31.148H70.996V35H54.112ZM90.1098 35C89.4858 34.04 88.7658 33.032 87.9498 31.976C87.1338 30.92 86.2698 29.9 85.3578 28.916C84.4698 27.932 83.5458 26.996 82.5858 26.108C81.6258 25.22 80.6778 24.452 79.7418 23.804V35H75.2058V10.052H79.7418V20.348C80.5338 19.556 81.3618 18.716 82.2258 17.828C83.0898 16.916 83.9418 16.004 84.7818 15.092C85.6458 14.156 86.4618 13.256 87.2298 12.392C87.9978 11.528 88.6938 10.748 89.3178 10.052H94.7538C93.9618 10.964 93.1218 11.912 92.2338 12.896C91.3458 13.88 90.4338 14.876 89.4978 15.884C88.5618 16.868 87.6138 17.852 86.6538 18.836C85.7178 19.82 84.7938 20.756 83.8818 21.644C84.8898 22.412 85.9098 23.312 86.9418 24.344C87.9978 25.352 89.0298 26.444 90.0378 27.62C91.0458 28.772 92.0058 29.984 92.9178 31.256C93.8538 32.504 94.7058 33.752 95.4738 35H90.1098ZM105.531 9.8C109.131 9.8 111.879 10.46 113.775 11.78C115.695 13.1 116.655 15.116 116.655 17.828C116.655 21.212 114.987 23.504 111.651 24.704C112.107 25.256 112.623 25.928 113.199 26.72C113.775 27.512 114.363 28.376 114.963 29.312C115.563 30.224 116.139 31.172 116.691 32.156C117.243 33.116 117.735 34.064 118.167 35H113.091C112.635 34.136 112.143 33.272 111.615 32.408C111.087 31.52 110.547 30.668 109.995 29.852C109.467 29.012 108.939 28.232 108.411 27.512C107.883 26.768 107.391 26.108 106.935 25.532C106.599 25.556 106.311 25.568 106.071 25.568C105.831 25.568 105.603 25.568 105.387 25.568H103.191V35H98.655V10.412C99.759 10.172 100.935 10.016 102.183 9.944C103.431 9.848 104.547 9.8 105.531 9.8ZM105.855 13.724C104.895 13.724 104.007 13.76 103.191 13.832V21.896H105.171C106.275 21.896 107.247 21.836 108.087 21.716C108.927 21.596 109.623 21.38 110.175 21.068C110.751 20.756 111.183 20.336 111.471 19.808C111.759 19.28 111.903 18.608 111.903 17.792C111.903 17.024 111.759 16.376 111.471 15.848C111.183 15.32 110.763 14.9 110.211 14.588C109.683 14.276 109.047 14.06 108.303 13.94C107.559 13.796 106.743 13.724 105.855 13.724ZM139.156 35C138.82 34.016 138.472 33.044 138.112 32.084C137.752 31.124 137.404 30.14 137.068 29.132H126.556C126.22 30.14 125.872 31.136 125.512 32.12C125.176 33.08 124.84 34.04 124.504 35H119.788C120.724 32.336 121.612 29.876 122.452 27.62C123.292 25.364 124.108 23.228 124.9 21.212C125.716 19.196 126.52 17.276 127.312 15.452C128.104 13.628 128.92 11.828 129.76 10.052H134.044C134.884 11.828 135.7 13.628 136.492 15.452C137.284 17.276 138.076 19.196 138.868 21.212C139.684 23.228 140.512 25.364 141.352 27.62C142.216 29.876 143.116 32.336 144.052 35H139.156ZM131.812 14.876C131.26 16.148 130.624 17.696 129.904 19.52C129.208 21.344 128.476 23.324 127.708 25.46H135.916C135.148 23.324 134.404 21.332 133.684 19.484C132.964 17.636 132.34 16.1 131.812 14.876ZM164.018 35C163.202 33.632 162.29 32.168 161.282 30.608C160.274 29.024 159.23 27.44 158.15 25.856C157.07 24.248 155.966 22.7 154.838 21.212C153.734 19.7 152.678 18.344 151.67 17.144V35H147.206V10.052H150.914C151.874 11.06 152.906 12.26 154.01 13.652C155.114 15.02 156.218 16.448 157.322 17.936C158.45 19.424 159.53 20.924 160.562 22.436C161.618 23.924 162.554 25.316 163.37 26.612V10.052H167.87V35H164.018ZM182.242 21.104C183.322 19.304 184.378 17.48 185.41 15.632C186.442 13.784 187.378 11.924 188.218 10.052H193.258C191.914 12.596 190.51 15.128 189.046 17.648C187.606 20.144 186.058 22.664 184.402 25.208V35H179.866V25.28C178.21 22.712 176.65 20.168 175.186 17.648C173.722 15.128 172.318 12.596 170.974 10.052H176.302C177.142 11.924 178.066 13.784 179.074 15.632C180.082 17.48 181.138 19.304 182.242 21.104Z" fill="#AC9573"/>
</svg>
