<svg width="76" height="65" viewBox="0 0 76 65" fill="none" xmlns="http://www.w3.org/2000/svg">
<path d="M75.2247 37.5125C75.2247 52.4354 63.5842 64.5 49.2647 64.5C34.9452 64.5 23.3047 52.4354 23.3047 37.5125C23.3047 22.5895 34.9452 10.5249 49.2647 10.5249C63.5842 10.5249 75.2247 22.5895 75.2247 37.5125Z" stroke="#AC9573"/>
<path d="M69.7766 37.5124C69.7766 49.3099 60.5752 58.8408 49.2643 58.8408C37.9534 58.8408 28.752 49.3099 28.752 37.5124C28.752 25.715 37.9534 16.1841 49.2643 16.1841C60.5752 16.1841 69.7766 25.715 69.7766 37.5124Z" stroke="#AC9573"/>
<path d="M51.8782 37.5124C51.8782 39.0404 50.6906 40.2462 49.2653 40.2462C47.84 40.2462 46.6523 39.0404 46.6523 37.5124C46.6523 35.9844 47.84 34.7786 49.2653 34.7786C50.6906 34.7786 51.8782 35.9844 51.8782 37.5124Z" stroke="#AC9573"/>
<line x1="49.7646" y1="18.918" x2="49.7646" y2="22.9603" stroke="#AC9573"/>
<line y1="-0.5" x2="3.96745" y2="-0.5" transform="matrix(0.693512 -0.720445 0.693512 0.720445 59.0713 26.9507)" stroke="#AC9573"/>
<line y1="-0.5" x2="3.96745" y2="-0.5" transform="matrix(0.693512 -0.720445 0.693512 0.720445 36.3457 50.5571)" stroke="#AC9573"/>
<line y1="-0.5" x2="3.96745" y2="-0.5" transform="matrix(-0.693512 -0.720445 0.693512 -0.720445 61.8213 50.5571)" stroke="#AC9573"/>
<line y1="-0.5" x2="3.96745" y2="-0.5" transform="matrix(-0.693512 -0.720445 0.693512 -0.720445 39.0977 26.9507)" stroke="#AC9573"/>
<line x1="67.1641" y1="38.0125" x2="63.2729" y2="38.0125" stroke="#AC9573"/>
<line x1="58.4482" y1="38.0125" x2="52.2224" y2="38.0125" stroke="#AC9573"/>
<line x1="35.2568" y1="38.0125" x2="31.3657" y2="38.0125" stroke="#AC9573"/>
<line y1="-0.5" x2="4.04229" y2="-0.5" transform="matrix(4.20772e-08 1 1 -4.54087e-08 49.2646 52.0647)" stroke="#AC9573"/>
<rect x="42.7598" y="0.5" width="13.0082" height="5.46766" stroke="#AC9573"/>
<line x1="45.7178" y1="6.30566" x2="45.7178" y2="10.348" stroke="#AC9573"/>
<line x1="53.5" y1="6.30566" x2="53.5" y2="10.348" stroke="#AC9573"/>
<line x1="3.53809" y1="43.2517" x2="19.1076" y2="43.2517" stroke="#AC9573"/>
<line x1="3.53809" y1="30.0183" x2="19.1076" y2="30.0183" stroke="#AC9573"/>
<line y1="36.6348" x2="19.1081" y2="36.6348" stroke="#AC9573"/>
</svg>
