<svg width="84" height="66" viewBox="0 0 84 66" fill="none" xmlns="http://www.w3.org/2000/svg">
<path d="M49.4186 29.6295C49.4186 41.0735 40.4929 50.3179 29.5223 50.3179C18.5516 50.3179 9.62598 41.0735 9.62598 29.6295C9.62598 18.1855 18.5516 8.94116 29.5223 8.94116C40.4929 8.94116 49.4186 18.1855 49.4186 29.6295Z" stroke="#AC9573"/>
<path d="M57.5446 29.63C57.5446 45.7361 44.9808 58.7599 29.5223 58.7599C14.0638 58.7599 1.5 45.7361 1.5 29.63C1.5 13.5238 14.0638 0.5 29.5223 0.5C44.9808 0.5 57.5446 13.5238 57.5446 29.63Z" stroke="#AC9573"/>
<path d="M1.16309 31.8773V65H52.682V59.6818M75.4348 46.7662H82.667V63.987H75.4348V59.6818M75.4348 46.7662V59.6818M75.4348 46.7662H67.5932M75.4348 59.6818H52.682M52.682 59.6818L52.7633 46.7662H59.7516M59.7516 46.7662V54.026M59.7516 46.7662H67.5932M67.5932 46.7662V54.026M23.3471 39.0844H35.4549M16.5213 33.935H42.2807M19.6091 20.7661V28.7012H38.8678V20.7661H19.6091Z" stroke="#AC9573"/>
</svg>
