<svg width="54" height="20" viewBox="0 0 54 20" fill="none" xmlns="http://www.w3.org/2000/svg">
<path d="M41.3376 12.2041L41.0001 16.9505C41.4829 16.9505 41.692 16.7431 41.9428 16.4941L44.2063 14.3308L48.8966 17.7657C49.7568 18.2451 50.3628 17.9926 50.5949 16.9743L53.6736 2.54819L53.6744 2.54734C53.9473 1.27574 53.2146 0.778496 52.3765 1.09044L34.2801 8.01876C33.045 8.49816 33.0637 9.18665 34.0701 9.4986L38.6966 10.9376L49.4431 4.21333C49.9489 3.87843 50.4087 4.06373 50.0305 4.39863L41.3376 12.2041Z" fill="#039BE5"/>
<path d="M18.146 11.5783C18.7427 6.56022 17.8593 3.39218 16.266 1.95928L16.2668 1.95845C13.6952 -0.488562 5.01016 -0.850743 1.9335 2.06835C0.551831 3.49626 0.0651638 5.59191 0.0118305 8.18629C-0.0415028 10.7815 -0.104836 15.643 4.42933 16.9619H4.4335L4.42933 18.9759C4.42933 18.9759 4.3985 19.7919 4.92016 19.9559C5.51683 20.1491 5.78683 19.7702 7.64266 17.5555C10.746 17.8245 13.1293 17.2083 13.4002 17.1184C14.0268 16.9086 17.5727 16.4398 18.146 11.5783ZM7.9485 16.1384C7.9485 16.1384 5.98433 18.5854 5.3735 19.2207C5.1735 19.4272 4.95433 19.4081 4.95766 18.9984C4.95766 18.7295 4.97266 15.6547 4.97266 15.6547C1.1285 14.554 1.35516 10.4143 1.39683 8.24873C1.4385 6.08231 1.83516 4.30804 3.00516 3.11326C5.70433 0.584658 13.3185 1.14999 15.2585 2.97172C17.6302 5.07237 16.786 11.0071 16.791 11.2095C16.3035 15.2675 13.4302 15.5248 12.9018 15.7005C12.676 15.7754 10.5802 16.3141 7.9485 16.1384Z" fill="#8E24AA"/>
<path d="M9.03457 3.58868C8.71374 3.58868 8.71374 4.08824 9.03457 4.09241C11.5237 4.11156 13.5737 5.84503 13.5962 9.02472C13.5962 9.36026 14.0879 9.35609 14.0837 9.02056H14.0829C14.0562 5.59441 11.8179 3.60783 9.03457 3.58868Z" fill="#8E24AA"/>
<path d="M12.3091 8.49767C12.3016 8.82905 12.7924 8.84487 12.7966 8.50933C12.8374 6.62016 11.6716 5.06404 9.48072 4.90002C9.15988 4.8767 9.12655 5.38042 9.44655 5.40374C11.3466 5.54778 12.3474 6.8433 12.3091 8.49767Z" fill="#8E24AA"/>
<path d="M11.7851 10.6466C11.3734 10.4085 10.9542 10.5567 10.7809 10.7906L10.4184 11.2594C10.2343 11.4975 9.89008 11.4659 9.89008 11.4659C7.37842 10.8023 6.70676 8.17629 6.70676 8.17629C6.70676 8.17629 6.67592 7.82077 6.90592 7.6301L7.35926 7.25544C7.58592 7.07559 7.72925 6.64264 7.49842 6.21719C6.88176 5.104 6.46759 4.72017 6.25676 4.42543C6.03509 4.14818 5.70176 4.08573 5.35509 4.27307H5.34759C4.62676 4.69436 3.83759 5.48283 4.09009 6.29462C4.52093 7.15053 5.31259 9.87895 7.83592 11.9405C9.02175 12.9154 10.8984 13.9146 11.6951 14.1452L11.7026 14.1568C12.4876 14.4183 13.2509 13.599 13.6584 12.8572V12.8513C13.8392 12.4925 13.7792 12.1528 13.5151 11.9305C13.0467 11.4742 12.3401 10.9705 11.7851 10.6466Z" fill="#8E24AA"/>
<path d="M9.82374 6.75838C10.6246 6.805 11.0129 7.22297 11.0546 8.08138C11.0696 8.41692 11.5571 8.39361 11.5421 8.05807C11.4887 6.93739 10.9037 6.31293 9.8504 6.25465C9.52957 6.2355 9.49957 6.73923 9.82374 6.75838Z" fill="#8E24AA"/>
</svg>
