<svg width="47" height="47" viewBox="0 0 47 47" fill="none" xmlns="http://www.w3.org/2000/svg">
<path d="M3.8378 6.62051L1 6.99091V4.01798L23.4321 1L45.684 4.01798V6.99091L43.0264 6.64122M3.8378 6.62051L23.4321 4.06302L43.0264 6.64122M3.8378 6.62051V45.9994M3.8378 45.9994H1.04504M3.8378 45.9994H6.63055M43.0264 45.9994V6.64122M43.0264 45.9994H45.9994M43.0264 45.9994H40.0535M6.63055 45.9994H40.0535M6.63055 45.9994V26.4951M40.0535 45.9994V26.4951M6.63055 15.3692V12.6215H40.0535V15.3692M6.63055 15.3692H40.0535M6.63055 15.3692V17.9817M40.0535 15.3692V17.9817M40.0535 17.9817C39.585 17.9817 17.5763 17.9817 6.63055 17.9817M40.0535 17.9817V20.8195M6.63055 17.9817V20.8195M6.63055 20.8195H40.0535M6.63055 20.8195V23.6573M40.0535 20.8195V23.6573M40.0535 23.6573H6.63055M40.0535 23.6573V26.4951M6.63055 23.6573V26.4951M6.63055 26.4951H40.0535" stroke="#AC9573"/>
<rect x="12.2646" y="38.3019" width="7.37826" height="7.19808" stroke="#AC9573"/>
<path d="M15.7012 40.0105L15.1455 40.418V38.3011H16.8482V40.418L16.2925 40.0105L15.9968 39.7936L15.7012 40.0105Z" stroke="#AC9573"/>
<rect x="19.6533" y="38.3019" width="7.37826" height="7.19808" stroke="#AC9573"/>
<path d="M23.0898 40.0105L22.5342 40.418V38.3011H24.2368V40.418L23.6812 40.0105L23.3855 39.7936L23.0898 40.0105Z" stroke="#AC9573"/>
<rect x="27.042" y="38.3019" width="7.37826" height="7.19808" stroke="#AC9573"/>
<path d="M30.4785 40.0105L29.9229 40.418V38.3011H31.6255V40.418L31.0699 40.0105L30.7742 39.7936L30.4785 40.0105Z" stroke="#AC9573"/>
<rect x="23.9785" y="31.0934" width="7.37826" height="7.19808" stroke="#AC9573"/>
<path d="M27.416 32.8026L26.8604 33.2101V31.0933H28.563V33.2101L28.0074 32.8026L27.7117 32.5858L27.416 32.8026Z" stroke="#AC9573"/>
<rect x="16.5908" y="31.0934" width="7.37826" height="7.19808" stroke="#AC9573"/>
<path d="M20.0273 32.8026L19.4717 33.2101V31.0933H21.1743V33.2101L20.6187 32.8026L20.323 32.5858L20.0273 32.8026Z" stroke="#AC9573"/>
</svg>
