<svg width="45" height="38" viewBox="0 0 45 38" fill="none" xmlns="http://www.w3.org/2000/svg">
<path d="M26.7893 30.4546C25.7116 30.9065 25.2597 32.1928 25.7464 33.2358L27.4499 36.8166C27.9366 37.8245 29.1186 38.2768 30.1616 37.8245C33.1166 36.5729 35.6545 34.939 37.6709 32.9573C40.1393 30.6284 41.808 27.9515 42.7119 24.9964C43.6158 22.0062 44.1025 17.939 44.1025 12.7589V2.08594C44.1025 0.938675 43.1639 7.62939e-06 42.0166 7.62939e-06L28.3538 7.62939e-06C27.2065 7.62939e-06 26.2679 0.938675 26.2679 2.08594L26.2679 15.7488C26.2679 16.8964 27.2065 17.8347 28.3538 17.8347H34.8897C34.8202 21.3464 33.9858 24.162 32.4561 26.2831C31.2045 27.9859 29.3272 29.3765 26.7893 30.4546Z" fill="#AC9573" fill-opacity="0.15"/>
<path d="M1.23855 30.4546C0.160822 30.9065 -0.29113 32.1928 0.195587 33.2358L1.89909 36.8166C2.38581 37.8245 3.56784 38.2768 4.6108 37.8245C7.56587 36.5729 10.1037 34.939 12.1201 32.9573C14.5885 30.6284 16.2572 27.9515 17.1611 24.9964C18.065 22.0062 18.5518 17.939 18.5518 12.7589L18.5518 2.08594C18.5518 0.938675 17.6131 7.62939e-06 16.4658 7.62939e-06L2.803 7.62939e-06C1.65574 7.62939e-06 0.71707 0.938675 0.71707 2.08594L0.71707 15.7488C0.71707 16.8964 1.65574 17.8347 2.803 17.8347H9.33891C9.26938 21.3464 8.435 24.162 6.90532 26.2831C5.65377 27.9859 3.77643 29.3765 1.23855 30.4546Z" fill="#AC9573" fill-opacity="0.15"/>
</svg>
