<svg width="71" height="67" viewBox="0 0 71 67" fill="none" xmlns="http://www.w3.org/2000/svg">
<path d="M20.858 66H1V31.1837M20.858 66V44.9365M20.858 66H70.1197V44.9365H37.5108M1 31.1837V1H20.858V31.1837M1 31.1837H20.858M20.858 31.1837V32.1247M5.45934 46.0223H16.6774M5.45934 50.1481H11.3819M20.858 32.1247L43.9908 8.09354L58.4837 23.1492L37.5108 44.9365M20.858 32.1247V44.9365M37.5108 44.9365H20.858M14.0296 37.1915V41.6793H5.45934V37.1915H14.0296Z" stroke="#AC9573"/>
<rect x="27.4893" y="49.9963" width="8.7548" height="10.5813" stroke="#AC9573"/>
<rect x="42.1221" y="49.9963" width="8.7548" height="10.5813" stroke="#AC9573"/>
<rect x="56.7539" y="49.9963" width="8.7548" height="10.5813" stroke="#AC9573"/>
<rect x="0.693512" width="8.94602" height="10.3669" transform="matrix(0.693512 -0.720445 0.693512 0.720445 27.4801 33.0214)" stroke="#AC9573"/>
<rect x="0.693512" width="8.94602" height="10.3669" transform="matrix(0.693512 -0.720445 0.693512 0.720445 37.8278 22.2733)" stroke="#AC9573"/>
<path d="M16.7343 58.9063C16.7343 60.2473 15.6926 61.3016 14.4472 61.3016C13.2019 61.3016 12.1602 60.2473 12.1602 58.9063C12.1602 57.5653 13.2019 56.511 14.4472 56.511C15.6926 56.511 16.7343 57.5653 16.7343 58.9063Z" stroke="#AC9573"/>
</svg>
