<svg width="25" height="25" viewBox="0 0 25 25" fill="none" xmlns="http://www.w3.org/2000/svg">
<g clip-path="url(#clip0)">
<path d="M24.12 14.4717C24.8658 8.19359 23.7617 4.23005 21.77 2.43734L21.771 2.4363C18.5565 -0.625157 7.70021 -1.07828 3.85437 2.5738C2.12729 4.36026 1.51895 6.98213 1.45229 10.228C1.38562 13.4748 1.30645 19.5571 6.97416 21.2071H6.97937L6.97416 23.7269C6.97416 23.7269 6.93562 24.7478 7.58771 24.953C8.33354 25.1946 8.67104 24.7207 10.9908 21.9498C14.87 22.2863 17.8492 21.5155 18.1877 21.403C18.971 21.1405 23.4033 20.554 24.12 14.4717ZM11.3731 20.1769C11.3731 20.1769 8.91791 23.2384 8.15437 24.0332C7.90437 24.2915 7.63041 24.2675 7.63458 23.7551C7.63458 23.4186 7.65333 19.5717 7.65333 19.5717C2.84812 18.1946 3.13145 13.0155 3.18354 10.3061C3.23562 7.59568 3.73145 5.37588 5.19396 3.88109C8.56791 0.717551 18.0856 1.42484 20.5106 3.70401C23.4752 6.33213 22.42 13.7571 22.4262 14.0103C21.8169 19.0873 18.2252 19.4092 17.5648 19.629C17.2825 19.7228 14.6627 20.3967 11.3731 20.1769Z" fill="#AC9573" fill-opacity="0.7"/>
<path d="M12.7314 4.47583C12.3304 4.47583 12.3304 5.10083 12.7314 5.10604C15.8429 5.13 18.4054 7.29875 18.4335 11.2769C18.4335 11.6967 19.0481 11.6915 19.0429 11.2717H19.0419C19.0085 6.98521 16.2106 4.49979 12.7314 4.47583Z" fill="#AC9573" fill-opacity="0.7"/>
<path d="M16.8238 10.6175C16.8145 11.0321 17.428 11.0519 17.4332 10.6321C17.4842 8.26854 16.0269 6.32167 13.2884 6.11646C12.8874 6.08729 12.8457 6.7175 13.2457 6.74667C15.6207 6.92688 16.8717 8.54771 16.8238 10.6175Z" fill="#AC9573" fill-opacity="0.7"/>
<path d="M16.1681 13.306C15.6535 13.008 15.1296 13.1935 14.9129 13.4862L14.4598 14.0726C14.2296 14.3705 13.7994 14.331 13.7994 14.331C10.6598 13.5007 9.82021 10.2153 9.82021 10.2153C9.82021 10.2153 9.78167 9.77054 10.0692 9.53199L10.6358 9.06324C10.9192 8.83824 11.0983 8.29658 10.8098 7.76428C10.039 6.37158 9.52126 5.89137 9.25771 5.52262C8.98063 5.17574 8.56397 5.09762 8.13063 5.33199H8.12126C7.22022 5.85908 6.23376 6.84553 6.54938 7.86116C7.08793 8.93199 8.07751 12.3455 11.2317 14.9247C12.714 16.1445 15.0598 17.3945 16.0556 17.683L16.065 17.6976C17.0462 18.0247 18.0004 16.9997 18.5098 16.0716V16.0643C18.7358 15.6153 18.6608 15.1903 18.3306 14.9122C17.7452 14.3414 16.8619 13.7112 16.1681 13.306Z" fill="#AC9573" fill-opacity="0.7"/>
<path d="M13.7179 8.44142C14.7189 8.49976 15.2044 9.02267 15.2565 10.0966C15.2752 10.5164 15.8846 10.4873 15.8658 10.0675C15.7992 8.66538 15.0679 7.88413 13.7512 7.81121C13.3502 7.78725 13.3127 8.41746 13.7179 8.44142Z" fill="#AC9573" fill-opacity="0.7"/>
</g>
<defs>
<clipPath id="clip0">
<rect width="25" height="25" fill="white"/>
</clipPath>
</defs>
</svg>
