<svg width="701" height="414" fill="none" xmlns="http://www.w3.org/2000/svg"><path fill="#AC9573" fill-opacity=".3" d="M111 292h582v78H111z"/><path d="M194.876 292.818c16.784 0 30.39-3.743 30.39-8.36 0-4.617-13.606-8.36-30.39-8.36s-30.39 3.743-30.39 8.36c0 4.617 13.606 8.36 30.39 8.36z" fill="#232323"/><path d="M37.806 303.458c-31.63 0-36.3-4.57-36.76-8.26a5.001 5.001 0 011.44-4.23c8.52-8.94 57.62-5.16 125.56.07 9.48.73 19.28 1.48 29.33 2.23 68.65 5.1 96.29 4.44 102-2.46 1.16-1.41 1.4-3.17.76-5.55-2.72-9.95-39.08-10-52.85-9.22a1.2 1.2 0 01-1.26-1.12 1.172 1.172 0 01.299-.859 1.178 1.178 0 01.821-.391c5.27-.31 51.57-2.64 55.28 11 .85 3.14.46 5.65-1.22 7.69-6.41 7.78-32.65 8.61-104 3.31-10.06-.75-19.86-1.5-29.34-2.23-64.76-5-115.92-8.93-123.66-.8a2.649 2.649 0 00-.8 2.29c.29 2.36 6 7.63 52 5.8 25.73-1 51.58-3.83 51.84-3.86a1.19 1.19 0 01.26 2.36c-.26 0-26.19 2.84-52 3.87-6.64.24-12.52.36-17.7.36z" fill="#fff" stroke="#232323" stroke-width="1.11" stroke-miterlimit="10"/><path d="M191.691 290.866c19.264-4.476 31.252-23.721 26.777-42.985-4.476-19.264-23.721-31.253-42.986-26.777-19.264 4.476-31.252 23.721-26.776 42.985 4.476 19.265 23.721 31.253 42.985 26.777z" fill="#fff"/><path d="M183.575 291.308h0a35.163 35.163 0 01-23.104-8.64c21.86-4.025 35.037-11.7 42.813-20.371 7.381-8.232 9.852-17.316 10.305-24.908a35.3 35.3 0 01-30.014 53.919z" fill="#AC9573" stroke="#232323"/><path opacity=".3" d="M183.575 291.308h0a35.163 35.163 0 01-23.104-8.64c21.86-4.025 35.037-11.7 42.813-20.371 7.381-8.232 9.852-17.316 10.305-24.908a35.3 35.3 0 01-30.014 53.919z" fill="#fff" stroke="#232323"/><path d="M201.195 270.038a56.94 56.94 0 000 0h1.9a65.784 65.784 0 0010.79-14.06c-16.77-17.72-33.08-15.91-33.08-15.91s16.36-1.81 33.13 15.93c.92-1.65 1.69-3.2 2.32-4.63-6.98-9.78-19-16.45-25.45-17.45l-1.5-.36a21.25 21.25 0 000 0l4.27-12a35.784 35.784 0 00-6.17-1.19c-2.77 4.47-9.9 18.75-9.9 47.08 0-28.33 7.13-42.61 9.9-47.08-1.2-.11-2.4-.18-3.63-.18a36.048 36.048 0 00-4.05.24c-4.22 6.38-12.29 21.45-12.83 44.07 8.37 3.05 19.57 5.33 34.3 5.54zm8.09-7.29c-14.26-13.9-30-14.63-30-14.63s15.74.73 30 14.63v0z" stroke="#232323" stroke-width="1.11" stroke-linecap="round" stroke-linejoin="round"/><path d="M166.855 264.558c.54-22.62 8.61-37.69 12.83-44.07a35.79 35.79 0 00-9.61 2.46 71.36 71.36 0 00-12.35 37.6 65.15 65.15 0 009.13 4.01z" stroke="#232323" stroke-width="1.11" stroke-linecap="round" stroke-linejoin="round"/><path d="M170.075 222.918a35.886 35.886 0 00-22.12 30.72 46.15 46.15 0 009.77 6.88 71.368 71.368 0 0112.35-37.6v0zm46.131 28.45a44.281 44.281 0 002-5.3 36.009 36.009 0 00-7.63-13.78l-2.77 9.24 2.72-9.24a36.028 36.028 0 00-7.55-6.42l-3.05 11.41 3.07-11.36a35.444 35.444 0 00-9.46-4.25l-4.27 12c6.54.94 16.65 4.79 26.94 17.7z" stroke="#232323" stroke-width="1.11" stroke-linecap="round" stroke-linejoin="round"/><path d="M219.575 257.688v-1.56c0-3.405-.485-6.792-1.44-10.06a43.942 43.942 0 01-2 5.3 22.633 22.633 0 01-1.52 3.06c.06.06-.86 1.51-.8 1.57.06.06-1 1.8-1 1.74-2.38 4.23-9.56 12.33-9.44 12.33-.12 0-3.88 3.41-5.93 5.13a98.748 98.748 0 01-11.89 8.45h.26-.26a124.15 124.15 0 01-12.69 6.7 36.003 36.003 0 0010.81 1.66h1.81c7.32-3.99 18.97-13.09 34.09-34.32z" stroke="#232323" stroke-width="1.11" stroke-linecap="round" stroke-linejoin="round"/><path d="M219.575 257.688c-15.12 21.23-26.77 30.33-34.03 34.23a35.87 35.87 0 0034.03-34.23zm-63.88 20.8a35.858 35.858 0 0017.23 11.86 124.15 124.15 0 0012.69-6.7c-8.54 1.58-21.9-2.34-29.92-5.16z" stroke="#232323" stroke-width="1.11" stroke-linecap="round" stroke-linejoin="round"/><path d="M185.615 283.648a98.827 98.827 0 0011.89-8.45c-25.79 2.64-41.7-5.35-48.46-9.89a35.767 35.767 0 006.65 13.18c8.02 2.82 21.38 6.74 29.92 5.16z" stroke="#232323" stroke-width="1.11" stroke-linecap="round" stroke-linejoin="round"/><path d="M197.505 275.198a83.94 83.94 0 005.59-5.14h-1.9a7.737 7.737 0 010 0c-14.73-.21-25.93-2.49-34.34-5.48-12.29-4.26-16.72-8.84-18.9-10.89-.06.82-.1 1.63-.1 2.46a36.141 36.141 0 001.19 9.18c6.76 4.52 22.67 12.51 48.46 9.87z" stroke="#232323" stroke-width="1.11" stroke-linecap="round" stroke-linejoin="round"/><path d="M191.691 290.866c19.264-4.476 31.252-23.721 26.777-42.985-4.476-19.264-23.721-31.253-42.986-26.777-19.264 4.476-31.252 23.721-26.776 42.985 4.476 19.265 23.721 31.253 42.985 26.777z" stroke="#232323" stroke-width="1.11" stroke-linecap="round" stroke-linejoin="round"/><path d="M221.987 140.6c-5.6 6.767-11.433 14-17.5 21.7a491.337 491.337 0 00-17.15 24.15 482.118 482.118 0 00-16.1 25.9c-5.133 8.633-9.8 17.267-14 25.9h64.75V140.6zm41.3-52.15v149.8h27.3v34.65h-27.3V331h-41.3v-58.1h-106.4v-30.1c4.667-10.267 10.85-22.05 18.55-35.35 7.933-13.3 16.683-26.95 26.25-40.95a722.17 722.17 0 0130.45-41.3c10.733-13.533 21.467-25.783 32.2-36.75h40.25z" fill="#232323"/><path d="M390.979 412.897c-25.113 0-40.208-22.281-45.567-41.877l-.18-.688a7.387 7.387 0 01.635-5.739 7.38 7.38 0 017.516-3.682 7.38 7.38 0 016.12 5.709l.136.508c4.072 14.914 15.162 31.961 32.953 30.979a23.927 23.927 0 0017.464-8.517c9.758-11.192 14.124-35.526 13.154-47.8a5.891 5.891 0 011.301-4.428 5.891 5.891 0 014.091-2.137 5.906 5.906 0 014.378 1.462 5.891 5.891 0 011.985 4.166c1.128 13.662-.361 43.028-13.797 58.427a38.468 38.468 0 01-27.741 13.538c-.824.057-1.647.079-2.448.079z" fill="#fff"/><path d="M428.613 335.438a5.902 5.902 0 00-5.403 6.352c.473 5.99-.328 14.846-2.403 23.691a26.087 26.087 0 018.765 1.128 46.662 46.662 0 01-8.619 23.545c-10.954 15.219-27.38 20.081-40.162 18.253-5.72-.812-12.286-3.813-17.791-6.893a40.149 40.149 0 0027.978 11.406c.801 0 1.625 0 2.448-.068a38.478 38.478 0 0027.742-13.538c13.436-15.399 14.88-44.765 13.797-58.427a5.897 5.897 0 00-4.055-5.18 5.884 5.884 0 00-2.297-.269z" fill="#AC9573"/><path opacity=".5" d="M428.613 335.438a5.902 5.902 0 00-5.403 6.352c.473 5.99-.328 14.846-2.403 23.691a26.087 26.087 0 018.765 1.128 46.662 46.662 0 01-8.619 23.545c-10.954 15.219-27.38 20.081-40.162 18.253-5.72-.812-12.286-3.813-17.791-6.893a40.149 40.149 0 0027.978 11.406c.801 0 1.625 0 2.448-.068a38.478 38.478 0 0027.742-13.538c13.436-15.399 14.88-44.765 13.797-58.427a5.897 5.897 0 00-4.055-5.18 5.884 5.884 0 00-2.297-.269z" fill="#fff"/><path d="M390.979 412.897c-25.113 0-40.208-22.281-45.567-41.877l-.18-.688a7.387 7.387 0 01.635-5.739 7.38 7.38 0 017.516-3.682 7.38 7.38 0 016.12 5.709l.136.508c4.072 14.914 15.162 31.961 32.953 30.979a23.927 23.927 0 0017.464-8.517c9.758-11.192 14.124-35.526 13.154-47.8a5.891 5.891 0 011.301-4.428 5.891 5.891 0 014.091-2.137 5.906 5.906 0 014.378 1.462 5.891 5.891 0 011.985 4.166c1.128 13.662-.361 43.028-13.797 58.427a38.468 38.468 0 01-27.741 13.538c-.824.057-1.647.079-2.448.079z" stroke="#232323" stroke-width="1.11" stroke-linecap="round" stroke-linejoin="round"/><path d="M376.494 397.633c.598-2.764-6.013 1.557-11.553 5.585a43.288 43.288 0 006.589 4.591c1.974-3.215 4.388-7.513 4.964-10.176zm14.484 15.264c.801 0 1.624 0 2.448-.067a42.943 42.943 0 007.119-1.004c-3.114-4.062-7.401-9.432-8.631-9.838-1.41-.474-4.129 6.442-5.641 10.639a40.21 40.21 0 004.705.27zm-31.339-45.769l-.136-.508a7.366 7.366 0 00-3.351-4.702 7.363 7.363 0 00-5.711-.85 7.38 7.38 0 00-5.209 9.264l.18.688a72.334 72.334 0 008.574 19.483l13.437-6.396a56.184 56.184 0 01-7.784-16.979zm61.528 32.152a37.985 37.985 0 002.865-3.768c-4.264-1.455-10.65-3.463-13.019-3.249-2.809.26 1.004 9.285 2.967 13.538a41.43 41.43 0 007.187-6.521zm.238-24.108c-.451.902 5.065 4.919 8.788 7.502a84.903 84.903 0 002.843-10.74c-4.512.903-11.191 2.358-11.631 3.238zm13.459-16.686c.248-3.215.372-6.283.383-9.104-3.88 2.132-8.483 5.088-8.483 7.029 0 1.94 4.309 2.177 8.1 2.075z" fill="#AC9573" stroke="#232323" stroke-width="1.11" stroke-linecap="round" stroke-linejoin="round"/><path d="M374.123 271.201s-10.954 31.724-5.054 56.408a48.251 48.251 0 0027.516 32.84s-16.009 5.641-12.41 14.317c3.599 8.675 17.408 3.091 21.898.282 4.49-2.809 10.097-11.225 10.943-16.844a40.29 40.29 0 00.564-8.698s18.242-1.963 30.595-12.071c0 0 10.955 8.698 18.818 7.017 7.863-1.681 19.088-15.726 17.96-28.35-1.128-12.624-8.405-12.613-12.85-10.695a18.038 18.038 0 00-6.182 3.926s6.453-7.897 0-18.806a24.543 24.543 0 00-17.971-11.79s-3.385-17.971-13.471-24.706c-10.085-6.735-46.039-13.707-60.356 17.17z" fill="#fff"/><path d="M457.528 282.111a63.633 63.633 0 01-49.481 30.708c-22.337 1.963-34.86-2.437-40.613-5.494a143.262 143.262 0 016.769-36.101c14.316-30.878 50.247-23.861 60.356-17.126 10.108 6.736 13.47 24.707 13.47 24.707 3.363.422 6.6 1.548 9.499 3.306zm14.576 23.296a18.032 18.032 0 00-6.183 3.926 14.735 14.735 0 002.629-6.363c-15.174 7.559-13.989 23.691-15.873 23.691-2.324 0-3.475-8.111-3.475-8.111s-2.899 11.586-20.307 19.709c-17.407 8.122-37.093 1.737-37.093 1.737s4.061 9.273-6.374 8.111a17.226 17.226 0 01-8.157-2.978 48.298 48.298 0 0019.292 15.275s-16.009 5.641-12.41 14.317c3.599 8.675 17.407 3.091 21.897.282 4.49-2.809 10.097-11.225 10.943-16.844.502-2.87.691-5.787.564-8.698 0 0 18.243-1.963 30.596-12.071 0 0 10.954 8.698 18.818 7.017 7.863-1.681 19.088-15.726 17.96-28.35-1.128-12.624-8.382-12.568-12.827-10.65z" fill="#AC9573"/><path opacity=".5" d="M457.528 282.111a63.633 63.633 0 01-49.481 30.708c-22.337 1.963-34.86-2.437-40.613-5.494a143.262 143.262 0 016.769-36.101c14.316-30.878 50.247-23.861 60.356-17.126 10.108 6.736 13.47 24.707 13.47 24.707 3.363.422 6.6 1.548 9.499 3.306zm14.576 23.296a18.032 18.032 0 00-6.183 3.926 14.735 14.735 0 002.629-6.363c-15.174 7.559-13.989 23.691-15.873 23.691-2.324 0-3.475-8.111-3.475-8.111s-2.899 11.586-20.307 19.709c-17.407 8.122-37.093 1.737-37.093 1.737s4.061 9.273-6.374 8.111a17.226 17.226 0 01-8.157-2.978 48.298 48.298 0 0019.292 15.275s-16.009 5.641-12.41 14.317c3.599 8.675 17.407 3.091 21.897.282 4.49-2.809 10.097-11.225 10.943-16.844.502-2.87.691-5.787.564-8.698 0 0 18.243-1.963 30.596-12.071 0 0 10.954 8.698 18.818 7.017 7.863-1.681 19.088-15.726 17.96-28.35-1.128-12.624-8.382-12.568-12.827-10.65z" fill="#fff"/><path d="M417.636 349.529a39.618 39.618 0 01-31.757-14.565m-11.756-63.763s-10.954 31.724-5.054 56.408a48.251 48.251 0 0027.516 32.84s-16.009 5.641-12.41 14.317c3.599 8.675 17.408 3.091 21.898.282 4.49-2.809 10.097-11.225 10.943-16.844a40.29 40.29 0 00.564-8.698s18.242-1.963 30.595-12.071c0 0 10.955 8.698 18.818 7.017 7.863-1.681 19.088-15.726 17.96-28.35-1.128-12.624-8.405-12.613-12.85-10.695a18.038 18.038 0 00-6.182 3.926s6.453-7.897 0-18.806a24.543 24.543 0 00-17.971-11.79s-3.385-17.971-13.471-24.706c-10.085-6.735-46.039-13.707-60.356 17.17z" stroke="#232323" stroke-width="1.11" stroke-linecap="round" stroke-linejoin="round"/><path d="M486.787 209.55c0 40.833-7.467 72.217-22.4 94.15-14.933 21.7-35.583 32.55-61.95 32.55-26.367 0-47.017-10.85-61.95-32.55-14.933-21.933-22.4-53.317-22.4-94.15 0-20.3 1.867-38.267 5.6-53.9 3.967-15.867 9.567-29.167 16.8-39.9 7.467-10.733 16.333-18.9 26.6-24.5 10.5-5.6 22.283-8.4 35.35-8.4 26.367 0 47.017 10.967 61.95 32.9 14.933 21.7 22.4 52.967 22.4 93.8zm-43.75 0c0-12.6-.7-24.383-2.1-35.35-1.4-10.967-3.733-20.417-7-28.35-3.033-8.167-7.117-14.583-12.25-19.25s-11.55-7-19.25-7c-7.7 0-14.233 2.333-19.6 7-5.133 4.667-9.333 11.083-12.6 19.25-3.033 7.933-5.25 17.383-6.65 28.35-1.167 10.967-1.75 22.75-1.75 35.35 0 12.6.583 24.383 1.75 35.35 1.4 10.967 3.617 20.533 6.65 28.7 3.267 7.933 7.467 14.233 12.6 18.9 5.367 4.667 11.9 7 19.6 7 7.7 0 14.117-2.333 19.25-7 5.133-4.667 9.217-10.967 12.25-18.9 3.267-8.167 5.6-17.733 7-28.7 1.4-10.967 2.1-22.75 2.1-35.35z" fill="#232323"/><path d="M465.923 309.378s-5.901 3.937-8.698 16.008" stroke="#232323" stroke-width="1.11" stroke-linecap="round" stroke-linejoin="round"/><path d="M476.741 314.545c-.688 2.053-2.572 3.283-4.196 2.73-1.625-.553-2.37-2.662-1.681-4.716.688-2.053 2.572-3.283 4.196-2.73 1.625.553 2.381 2.663 1.681 4.716zm5.81 3.655c-.688 2.053-2.572 3.283-4.197 2.73-1.625-.553-2.38-2.662-1.681-4.715.699-2.054 2.572-3.283 4.197-2.731 1.624.553 2.38 2.663 1.681 4.716z" fill="#fff" stroke="#232323" stroke-width="1.11" stroke-linecap="round" stroke-linejoin="round"/><path d="M483.793 323.672a2.33 2.33 0 01-2.216 1.123 2.324 2.324 0 11.986-4.508 2.617 2.617 0 011.23 3.385zm-7.413 7.513c-2.031 3.667-6.092 5.291-9.082 3.633-2.989-1.659-3.757-5.957-1.726-9.623 2.031-3.667 6.092-5.291 9.082-3.633 2.989 1.658 3.756 5.957 1.726 9.623z" fill="#fff" stroke="#232323" stroke-width="1.11" stroke-linecap="round" stroke-linejoin="round"/><path d="M396.586 360.472a16.978 16.978 0 0012.071.846m-24.425 13.47s1.129-4.772 8.134-8.134m-1.116 12.354s2.809-6.769 7.581-9.827" stroke="#232323" stroke-width="1.11" stroke-linecap="round" stroke-linejoin="round"/><path d="M351.381 255.204s-11.789 16.561-13.47 33.405c-1.681 16.843.282 28.068 5.336 32.287 5.054 4.22 10.097 2.527 12.906-1.41 2.809-3.937-1.681-17.689-1.681-17.689s4.772-13.188 12.071-22.45c7.299-9.263 8.698-10.673 8.698-10.673s-12.635-14.316-23.86-13.47z" fill="#fff"/><path d="M351.38 255.204a91.13 91.13 0 00-6.825 11.936c5.64 2.256 14.384 6.882 19.934 15.072a54.41 54.41 0 012.099-2.865c7.299-9.263 8.698-10.673 8.698-10.673s-12.681-14.316-23.906-13.47z" fill="#AC9573"/><path opacity=".5" d="M351.38 255.204a91.13 91.13 0 00-6.825 11.936c5.64 2.256 14.384 6.882 19.934 15.072a54.41 54.41 0 012.099-2.865c7.299-9.263 8.698-10.673 8.698-10.673s-12.681-14.316-23.906-13.47z" fill="#fff"/><path d="M351.381 255.204s-11.789 16.561-13.47 33.405c-1.681 16.843.282 28.068 5.336 32.287 5.054 4.22 10.097 2.527 12.906-1.41 2.809-3.937-1.681-17.689-1.681-17.689s4.772-13.188 12.071-22.45c7.299-9.263 8.698-10.673 8.698-10.673s-12.635-14.316-23.86-13.47zm-8.134 65.692a31.172 31.172 0 01-1.974-11.518m9.543 13.199s-2.798-4.772-3.08-12.917" stroke="#232323" stroke-width="1.11" stroke-linecap="round" stroke-linejoin="round"/><path d="M355.037 285.235c0-2.955-5.641-8.731-13.482-11.281a66.681 66.681 0 00-2.606 8.427 33.128 33.128 0 018.789 2.809c4.208 2.291 7.299 3.419 7.299.045zm-4.344-29.027a94.646 94.646 0 00-5.009 8.585 26.997 26.997 0 016.769 2.821c8.698 5.043 10.379 5.641 7.581-1.692-1.693-4.603-5.731-7.728-9.341-9.714z" fill="#AC9573" stroke="#232323" stroke-width="1.11" stroke-linecap="round" stroke-linejoin="round"/><path d="M443.721 247.025s13.357 15.32 16.685 31.927c3.328 16.606 2.482 27.967-2.143 32.648-4.626 4.682-9.804 3.509-12.985-.135-3.182-3.644 0-17.757 0-17.757s-6.047-12.669-14.215-21.176c-8.168-8.506-9.713-9.758-9.713-9.758s11.112-15.49 22.371-15.749z" fill="#fff"/><path d="M443.721 247.025c-11.282.259-22.428 15.794-22.428 15.794s1.534 1.264 9.713 9.759a59.735 59.735 0 014.31 5.076 47.55 47.55 0 0117.678-17.26 91.903 91.903 0 00-9.273-13.369z" fill="#AC9573"/><path opacity=".5" d="M443.721 247.025c-11.282.259-22.428 15.794-22.428 15.794s1.534 1.264 9.713 9.759a59.735 59.735 0 014.31 5.076 47.55 47.55 0 0117.678-17.26 91.903 91.903 0 00-9.273-13.369z" fill="#fff"/><path d="M443.721 247.025s13.357 15.32 16.685 31.927c3.328 16.606 2.482 27.967-2.143 32.648-4.626 4.682-9.804 3.509-12.985-.135-3.182-3.644 0-17.757 0-17.757s-6.047-12.669-14.215-21.176c-8.168-8.506-9.713-9.758-9.713-9.758s11.112-15.49 22.371-15.749zm14.541 64.575a31.088 31.088 0 00.835-11.642m-8.214 14.057s2.335-5.021 1.816-13.155" stroke="#232323" stroke-width="1.11" stroke-linecap="round" stroke-linejoin="round"/><path d="M443.033 277.271c-.282-2.945 4.761-9.24 12.319-12.5a66.248 66.248 0 013.385 8.122 33.81 33.81 0 00-8.462 3.667c-3.948 2.651-6.904 4.027-7.242.711zm1.465-29.31a92.016 92.016 0 015.799 7.999 27.146 27.146 0 00-6.487 3.463c-8.157 5.889-9.781 6.611-7.706-.925 1.298-4.693 4.998-8.213 8.394-10.537z" fill="#AC9573" stroke="#232323" stroke-width="1.11" stroke-linecap="round" stroke-linejoin="round"/><path d="M350.274 240.877s-3.475 11.721-2.166 16.493c1.309 4.772 7.378.44 13.459 5.641 6.081 5.201 11.71 14.587 34.736 16.324 23.025 1.738 36.924-10.683 41.741-17.633 4.818-6.949 4.344-15.196 12.591-15.625 8.246-.428 1.308-16.505-1.298-19.111 0 0 16.065-23.883 16.065-29.963 0-6.081-15.196-4.784-33.844.868 0 0-13.899-7.389-39.091-3.046-25.192 4.344-32.57 11.733-32.57 11.733s-31.272 3.904-33.438 7.807c-2.166 3.903 4.276 20.431 23.815 26.512z" fill="#fff"/><path d="M450.602 246.089c8.258-.44 1.309-16.505-1.297-19.111 0 0 3.057-4.513 6.498-10.154-9.33-4.873-18.491-7.581-20.927-4.839-5.246 5.888-2.392 17.17 0 28.203 2.391 11.034-7.164 15.738-13.843 25.282s-16.211-.959-16.211-.959c-3.385 13.843-17.656 4.772-17.656 4.772-10.966-3.384-29.569-14.305-25.756-21.942 3.813-7.638 4.772-14.79-1.906-20.984-6.679-6.193-33.315-11.349-33.315-11.349-1.399 4.704 5.359 20.115 24.098 25.947 0 0-3.475 11.722-2.166 16.494 1.308 4.772 7.378.44 13.458 5.641 6.081 5.201 11.711 14.587 34.736 16.324 23.026 1.738 36.925-10.683 41.742-17.633 4.817-6.949 4.287-15.264 12.545-15.692z" fill="#AC9573"/><path opacity=".5" d="M450.602 246.089c8.258-.44 1.309-16.505-1.297-19.111 0 0 3.057-4.513 6.498-10.154-9.33-4.873-18.491-7.581-20.927-4.839-5.246 5.888-2.392 17.17 0 28.203 2.391 11.034-7.164 15.738-13.843 25.282s-16.211-.959-16.211-.959c-3.385 13.843-17.656 4.772-17.656 4.772-10.966-3.384-29.569-14.305-25.756-21.942 3.813-7.638 4.772-14.79-1.906-20.984-6.679-6.193-33.315-11.349-33.315-11.349-1.399 4.704 5.359 20.115 24.098 25.947 0 0-3.475 11.722-2.166 16.494 1.308 4.772 7.378.44 13.458 5.641 6.081 5.201 11.711 14.587 34.736 16.324 23.026 1.738 36.925-10.683 41.742-17.633 4.817-6.949 4.287-15.264 12.545-15.692z" fill="#fff"/><path d="M416.633 248.706c.328 2.753-5.787 5.72-13.628 6.633-7.84.914-14.474-.575-14.801-3.384-.327-2.809 5.787-5.708 13.639-6.622 7.852-.914 14.475.632 14.79 3.373z" fill="#AC9573"/><path opacity=".5" d="M416.633 248.706c.328 2.753-5.787 5.72-13.628 6.633-7.84.914-14.474-.575-14.801-3.384-.327-2.809 5.787-5.708 13.639-6.622 7.852-.914 14.475.632 14.79 3.373z" fill="#fff"/><path d="M350.274 240.877s-3.475 11.721-2.166 16.493c1.309 4.772 7.378.44 13.459 5.641 6.081 5.201 11.71 14.587 34.736 16.324 23.025 1.738 36.924-10.683 41.741-17.633 4.818-6.949 4.344-15.196 12.591-15.625 8.246-.428 1.308-16.505-1.298-19.111 0 0 16.065-23.883 16.065-29.963 0-6.081-15.196-4.784-33.844.868 0 0-13.899-7.389-39.091-3.046-25.192 4.344-32.57 11.733-32.57 11.733s-31.272 3.904-33.438 7.807c-2.166 3.903 4.276 20.431 23.815 26.512z" stroke="#232323" stroke-width="1.11" stroke-miterlimit="10"/><path d="M440.099 206.129c-11.282 7.582-7.299 15.163-2.257 19.371 3.08 2.572 8.044 2.256 11.44 1.534 0 0 16.065-23.883 16.065-29.964.011-.056-14.023 1.422-25.248 9.059zm-113.921 8.8c-1.399 4.704 5.358 20.115 24.097 25.948 0 0 14.305-1.399 9.533-12.907-4.456-10.74-26.986-13.413-33.63-13.041zm66.223-20.081c-1.478.259-2.899.53-4.264.801 2.256 11.394 5.968 30.37 9.284 30.37 3.317 0 5.856-20.803 6.939-32.457-4.01.169-8.005.598-11.959 1.286zm-12.94 27.786c3.452-2.03 2.933-17.294 2.38-25.575a92.693 92.693 0 00-10.503 3.283c1.252 7.75 4.434 24.458 8.123 22.292zm33.405-7.017c3.531 1.241 5.517-11.451 6.633-21.22a70.215 70.215 0 00-10.785-.914c-.113 8.021.327 20.792 4.152 22.134z" fill="#AC9573" stroke="#232323" stroke-width="1.11" stroke-miterlimit="10"/><path d="M408.137 259.547a13.285 13.285 0 00-9.781 1.208.962.962 0 00-.426 1.171c.051.142.135.27.245.374l5.991 5.641a.965.965 0 00.851.244.966.966 0 00.694-.549l3.069-6.769a.972.972 0 00-.643-1.32z" fill="#AC9573" stroke="#232323" stroke-width="1.11" stroke-linecap="round" stroke-linejoin="round"/><path d="M393.901 250.127c.824 2.178.497 4.321-.733 4.784-1.23.462-2.899-.914-3.734-3.08s-.497-4.321.733-4.783c1.23-.463 2.899.913 3.734 3.079zm16.334-1.545c-.428 2.256.271 4.343 1.569 4.58 1.297.237 2.696-1.41 3.125-3.7.428-2.29-.271-4.332-1.569-4.581-1.297-.248-2.696 1.422-3.125 3.701z" fill="#232323"/><path d="M405.711 267.625s-8.01 10.875-15.309-.068m13.766.373s5.325 5.516 10.943 2.425c5.618-3.091 2.256-7.897 2.256-7.897" stroke="#232323" stroke-width="1.11" stroke-linecap="round" stroke-linejoin="round"/><path d="M379.742 241.441s1.963-7.018 11.225-5.337m16.844-1.116s7.017-4.208 13.47 2.527" stroke="#232323" stroke-width="3.34" stroke-linecap="round" stroke-linejoin="round"/><path d="M374.406 260.247l6.735 1.681m-.846 2.527l-5.889 1.128m7.016 1.963l-4.219 2.245m46.887-12.635l5.9-1.399m-4.771 4.208h3.926m-3.092 2.809l5.336 1.41" stroke="#232323" stroke-width="1.11" stroke-miterlimit="10" stroke-linecap="round"/><path d="M563.41 223.04s-2.45-7.95-9.59-10.81c-5-2-10.67-1.46-15.82-.57-9.58 1.67-17.94 5.48-27 8.73 0 0 3.88-1.43 19.79 6.33 5.86 2.85 12.56 5.07 19.26 4.92 5.37-.12 13.63-1.66 13.36-8.6zm.859-23.37s0-8.33-6-13.12c-4.18-3.34-9.8-4.49-15-5.12-9.65-1.17-18.76.06-28.4.55 0 0 4.13-.24 17.12 11.78 4.79 4.42 10.56 8.48 17 10.27 5.18 1.44 13.52 2.36 15.28-4.36zm16.411 30.91s-6.49-5.21-6.51-12.9c0-5.35 2.57-10.46 5.3-14.91 5.08-8.3 11.7-14.66 18.08-21.91 0 0-2.76 3.08-1.42 20.73.5 6.5.08 13.55-2.53 19.72-2.05 4.96-6.52 12.07-12.92 9.27zm23 12.78s-.92-8.27 4.5-13.73c3.76-3.79 9.21-5.59 14.28-6.81 9.46-2.28 18.64-2.11 28.27-2.74 0 0-4.12.23-15.64 13.67-4.24 5-9.51 9.65-15.72 12.18-4.95 2.03-13.13 3.9-15.69-2.57z" fill="#AC9573"/><path d="M602.211 213.87s-8.25-1.13-12.21-7.72c-2.76-4.58-3.17-10.3-3.12-15.52.1-9.72 2.52-18.59 4.27-28.08 0 0-.79 4.06 9.43 18.51 3.76 5.33 7 11.59 8 18.23.71 5.33.52 13.72-6.37 14.58zm23.739-14.81s5.93 5.84 13.57 5c5.31-.61 10.09-3.78 14.19-7 7.64-6 13.19-13.34 19.64-20.51 0 0-2.73 3.09-20.42 3.82-6.51.27-13.46 1.5-19.29 4.82-4.68 2.62-11.21 7.89-7.69 13.87z" fill="#AC9573"/><path d="M619.081 193.29s8.28.83 13.68-4.64c3.76-3.81 5.5-9.27 6.67-14.36 2.18-9.47 1.92-18.66 2.44-28.29 0 0-.18 4.12-13.51 15.78-4.9 4.29-9.55 9.61-12 15.84-1.99 5.01-3.78 13.21 2.72 15.67z" fill="#AC9573"/><path d="M589.501 273.9l-14.29-35.19-16.49-40.69m34.08 69.83l14.3-48.94 15.39-30.24m-24.19 59.93l14.3-8.24m-5.502-21.45l-7.15-15.94m16.09.08l17.45-7.78m-55.528 50.03l6.05-24.19m-14.07 5.81l-13.97-7.46" stroke="#232323" stroke-width="1.11" stroke-linecap="round" stroke-linejoin="round"/><path d="M596.841 291.49h-11.92a8.369 8.369 0 01-8.22-6.81l-4.24-22.33h36.84l-4.23 22.33a8.38 8.38 0 01-8.23 6.81z" fill="#232323" stroke="#232323" stroke-width="1.11" stroke-linecap="round" stroke-linejoin="round"/><path d="M619.987 140.6c-5.6 6.767-11.433 14-17.5 21.7a491.337 491.337 0 00-17.15 24.15 482.118 482.118 0 00-16.1 25.9c-5.133 8.633-9.8 17.267-14 25.9h64.75V140.6zm41.3-52.15v149.8h27.3v34.65h-27.3V331h-41.3v-58.1h-106.4v-30.1c4.667-10.267 10.85-22.05 18.55-35.35 7.933-13.3 16.683-26.95 26.25-40.95a722.17 722.17 0 0130.45-41.3c10.733-13.533 21.467-25.783 32.2-36.75h40.25z" fill="#232323"/></svg>