<svg width="68" height="67" fill="none" xmlns="http://www.w3.org/2000/svg"><path d="M59.806 49.383V66H1v-5.457m58.806-24.11V20.06h-15.29M1 25.273V20.06h7.37M1 25.273h53.553v11.16M1 25.272v35.27m53.553-11.16v11.16H1M44.517 20.06l2.9-13.44L23.66 1l-.862 4.236M44.517 20.06h-4.861M22.798 5.236H8.37V20.06M22.798 5.236l-1.06 4.887M8.37 20.06h4.94m6.273 0H13.31m6.273 0l2.155-9.937m-2.155 9.937h4.783m-11.056 0v-7.33l2.43-2.607h5.998m2.628 9.937l2.274-9.937 3.685-2.28 8.938 2.28 1.882 2.606-1.49 7.331m-15.29 0h15.29M55.26 49.383H67.1v-12.95H53.611c-2.744 0-7.684.765-7.684 6.434 0 5.67 5.097 6.517 7.684 6.517h1.647z" stroke="#AC9573"/><path d="M52.956 43.03c0 .417-.32.722-.676.722-.356 0-.677-.305-.677-.722s.321-.722.677-.722c.355 0 .676.305.676.722z" stroke="#AC9573"/></svg>