<svg width="27" height="27" fill="none" xmlns="http://www.w3.org/2000/svg"><mask id="path-1-inside-1" fill="#fff"><path fill-rule="evenodd" clip-rule="evenodd" d="M21.665 17.996A9.954 9.954 0 0023 13c0-5.523-4.477-10-10-10S3 7.477 3 13s4.477 10 10 10a9.954 9.954 0 005.024-1.352l5.436 1.842-1.795-5.494z"/></mask><path d="M21.665 17.996l-.866-.5-.224.386.14.424.95-.31zm-3.64 3.652l.32-.947-.43-.146-.394.229.503.864zm5.435 1.842l-.32.947 1.891.64-.62-1.898-.951.31zM22 13c0 1.64-.437 3.174-1.201 4.495l1.731 1.001A10.954 10.954 0 0024 13h-2zm-9-9a9 9 0 019 9h2c0-6.075-4.925-11-11-11v2zm-9 9a9 9 0 019-9V2C6.925 2 2 6.925 2 13h2zm9 9a9 9 0 01-9-9H2c0 6.075 4.925 11 11 11v-2zm4.521-1.216A8.953 8.953 0 0113 22v2c2.013 0 3.903-.542 5.528-1.488l-1.007-1.728zm6.26 1.759L18.345 20.7l-.641 1.894 5.435 1.842.642-1.894zm-3.067-4.236L22.51 23.8l1.9-.62-1.795-5.495-1.9.622z" fill="#000" mask="url(#path-1-inside-1)"/></svg>