<svg width="91" height="66" fill="none" xmlns="http://www.w3.org/2000/svg"><path d="M3.464 49.544V1h74.01l-5.632 10.605H52.218V29.98M3.464 49.544C2.467 49.94 1 51.19 1 53.018c0 1.828 1.467 3.139 2.464 3.565h13.992M3.464 49.544h16.193m32.56 0h5.897m-5.896 0V29.98m0 19.564H34.44m50.601 0h2.112c.88 0 2.64.695 2.64 3.474 0 2.78-1.76 3.535-2.64 3.565h-6.511m4.4-7.039V32.631m0 16.913h-6.6m-20.328 0V29.98m0 19.564h5.544M58.114 29.98V17.547h14.52l4.312 4.48M58.114 29.98h-5.896m12.232 8.502h3.696m16.896-5.85v-2.195l-8.096-8.41m8.096 10.604H67.53c-.821-.03-2.464-.512-2.464-2.194v-6.582c.117-.61.774-1.828 2.464-1.828h9.416M61.458 56.583H36.64m-6.571-.639c0 1.761-1.37 3.156-3.02 3.156s-3.02-1.395-3.02-3.156c0-1.762 1.37-3.157 3.02-3.157s3.02 1.395 3.02 3.157zm44.001 0c0 1.761-1.37 3.156-3.02 3.156s-3.02-1.395-3.02-3.156c0-1.762 1.37-3.157 3.02-3.157s3.02 1.395 3.02 3.157z" stroke="#AC9573"/><path d="M36.229 55.944c0 5.295-4.128 9.556-9.18 9.556-5.053 0-9.18-4.26-9.18-9.556 0-5.296 4.127-9.556 9.18-9.556 5.052 0 9.18 4.26 9.18 9.556zm44.001 0c0 5.295-4.128 9.556-9.18 9.556-5.053 0-9.18-4.26-9.18-9.556 0-5.296 4.127-9.556 9.18-9.556 5.052 0 9.18 4.26 9.18 9.556z" stroke="#AC9573"/></svg>