<svg width="70" height="80" fill="none" xmlns="http://www.w3.org/2000/svg"><path d="M48.911 36.232c0 8.01-6.246 14.472-13.911 14.472-7.666 0-13.912-6.461-13.912-14.472 0-8.01 6.246-14.471 13.912-14.471 7.665 0 13.911 6.46 13.911 14.471z" stroke="#AC9573"/><path d="M53.853 36.232c0 10.845-8.458 19.605-18.853 19.605-10.394 0-18.852-8.76-18.852-19.605S24.605 16.627 35 16.627s18.853 8.76 18.853 19.605z" stroke="#AC9573"/><path d="M34.525 30.312a.5.5 0 01.95 0l.95 2.906a1.5 1.5 0 001.426 1.034h3.062a.5.5 0 01.293.905l-2.466 1.781a1.5 1.5 0 00-.548 1.682l.945 2.89a.5.5 0 01-.768.56l-2.491-1.798a1.5 1.5 0 00-1.756 0L31.63 42.07a.5.5 0 01-.768-.56l.945-2.89a1.5 1.5 0 00-.548-1.682l-2.466-1.78a.5.5 0 01.292-.906h3.063a1.5 1.5 0 001.425-1.034l.95-2.906z" stroke="#AC9573"/><path d="M34.863 10.916l.173.065.175-.065 7.076-2.653 4.837 5.998.113.14.177.033 7.417 1.38 1.304 7.72.03.175.131.115 5.768 5.056-2.587 7.365-.06.168.058.166 2.561 7.373-5.776 5.026-.138.12-.031.18-1.329 7.702-7.409 1.35-.183.034-.119.146-4.85 5.97-7.064-2.677-.173-.066-.175.066-7.076 2.652-4.837-5.998-.113-.14-.177-.033-7.417-1.38-1.304-7.72-.03-.175-.131-.115-5.768-5.056 2.587-7.364.06-.168-.059-.167-2.56-7.372 5.777-5.027.137-.12.031-.18 1.329-7.702 7.409-1.35.183-.034.119-.146 4.85-5.97 7.064 2.678z" stroke="#AC9573"/><path d="M27.177 64.75l-7.395 13.83-2.084-7.415-6.992 2.068 8.336-15.185m23.781 6.702l7.395 13.83 2.084-7.415 6.992 2.068-8.336-15.185m-30.37 8.555l3.294-5.988m25.53 5.988l-3.294-5.988" stroke="#AC9573"/></svg>