<svg width="20" height="20" fill="none" xmlns="http://www.w3.org/2000/svg"><path d="M13.75 0h-7.5A6.25 6.25 0 000 6.25v7.5A6.25 6.25 0 006.25 20h7.5A6.25 6.25 0 0020 13.75v-7.5A6.25 6.25 0 0013.75 0zm4.375 13.75a4.38 4.38 0 01-4.375 4.375h-7.5a4.38 4.38 0 01-4.375-4.375v-7.5A4.38 4.38 0 016.25 1.875h7.5a4.38 4.38 0 014.375 4.375v7.5z" fill="#AC9573"/><path d="M10 5a5 5 0 100 10 5 5 0 000-10zm0 8.125A3.13 3.13 0 016.875 10 3.129 3.129 0 0110 6.875 3.129 3.129 0 0113.125 10 3.13 3.13 0 0110 13.125zm5.375-7.834a.666.666 0 100-1.332.666.666 0 000 1.332z" fill="#AC9573"/><path d="M13.75 0h-7.5A6.25 6.25 0 000 6.25v7.5A6.25 6.25 0 006.25 20h7.5A6.25 6.25 0 0020 13.75v-7.5A6.25 6.25 0 0013.75 0zm4.375 13.75a4.38 4.38 0 01-4.375 4.375h-7.5a4.38 4.38 0 01-4.375-4.375v-7.5A4.38 4.38 0 016.25 1.875h7.5a4.38 4.38 0 014.375 4.375v7.5z" fill="url(#paint0_linear)"/><path d="M10 5a5 5 0 100 10 5 5 0 000-10zm0 8.125A3.13 3.13 0 016.875 10 3.129 3.129 0 0110 6.875 3.129 3.129 0 0113.125 10 3.13 3.13 0 0110 13.125z" fill="url(#paint1_linear)"/><path d="M15.375 5.291a.666.666 0 100-1.332.666.666 0 000 1.332z" fill="url(#paint2_linear)"/><defs><linearGradient id="paint0_linear" x1="1.831" y1="18.169" x2="18.169" y2="1.831" gradientUnits="userSpaceOnUse"><stop stop-color="#FFC107"/><stop offset=".507" stop-color="#F44336"/><stop offset=".99" stop-color="#9C27B0"/></linearGradient><linearGradient id="paint1_linear" x1="6.465" y1="13.535" x2="13.535" y2="6.465" gradientUnits="userSpaceOnUse"><stop stop-color="#FFC107"/><stop offset=".507" stop-color="#F44336"/><stop offset=".99" stop-color="#9C27B0"/></linearGradient><linearGradient id="paint2_linear" x1="14.904" y1="5.096" x2="15.846" y2="4.154" gradientUnits="userSpaceOnUse"><stop stop-color="#FFC107"/><stop offset=".507" stop-color="#F44336"/><stop offset=".99" stop-color="#9C27B0"/></linearGradient></defs></svg>