<svg width="194" height="42" fill="none" xmlns="http://www.w3.org/2000/svg"><path stroke="#AC9573" stroke-width="2" stroke-linecap="round" d="M3.414 10.888l28.897 28.897m-21.444.801l28.865-28.93M12.283 2.001l28.865 28.93M2 30.93L30.897 2.033"/><path d="M54.112 35V10.052h16.02v3.852H58.648v6.156h10.224v3.78H58.648v7.308h12.348V35H54.112zm35.998 0a45.785 45.785 0 00-2.16-3.024 44.773 44.773 0 00-2.592-3.06 43.749 43.749 0 00-2.772-2.808 26.058 26.058 0 00-2.844-2.304V35h-4.536V10.052h4.536v10.296c.792-.792 1.62-1.632 2.484-2.52.864-.912 1.716-1.824 2.556-2.736.864-.936 1.68-1.836 2.448-2.7.768-.864 1.464-1.644 2.088-2.34h5.436c-.792.912-1.632 1.86-2.52 2.844-.888.984-1.8 1.98-2.736 2.988-.936.984-1.884 1.968-2.844 2.952-.936.984-1.86 1.92-2.772 2.808a30.484 30.484 0 013.06 2.7 45.084 45.084 0 013.096 3.276 47.914 47.914 0 012.88 3.636A49.385 49.385 0 0195.474 35H90.11zm15.42-25.2c3.6 0 6.348.66 8.244 1.98 1.92 1.32 2.88 3.336 2.88 6.048 0 3.384-1.668 5.676-5.004 6.876a41.99 41.99 0 011.548 2.016 53.52 53.52 0 011.764 2.592c.6.912 1.176 1.86 1.728 2.844A35.86 35.86 0 01118.167 35h-5.076a47.408 47.408 0 00-1.476-2.592 51.904 51.904 0 00-1.62-2.556 39.552 39.552 0 00-1.584-2.34 47.5 47.5 0 00-1.476-1.98 12.39 12.39 0 01-.864.036h-2.88V35h-4.536V10.412c1.104-.24 2.28-.396 3.528-.468a44.121 44.121 0 013.348-.144zm.324 3.924c-.96 0-1.848.036-2.664.108v8.064h1.98c1.104 0 2.076-.06 2.916-.18.84-.12 1.536-.336 2.088-.648.576-.312 1.008-.732 1.296-1.26.288-.528.432-1.2.432-2.016 0-.768-.144-1.416-.432-1.944a3.181 3.181 0 00-1.26-1.26c-.528-.312-1.164-.528-1.908-.648a12.905 12.905 0 00-2.448-.216zM139.156 35c-.336-.984-.684-1.956-1.044-2.916s-.708-1.944-1.044-2.952h-10.512a109.23 109.23 0 01-1.044 2.988L124.504 35h-4.716a424.79 424.79 0 012.664-7.38c.84-2.256 1.656-4.392 2.448-6.408.816-2.016 1.62-3.936 2.412-5.76a184.434 184.434 0 012.448-5.4h4.284a176.685 176.685 0 014.824 11.16 244.456 244.456 0 012.484 6.408 283.26 283.26 0 012.7 7.38h-4.896zm-7.344-20.124a153.386 153.386 0 00-1.908 4.644 328.366 328.366 0 00-2.196 5.94h8.208a242.826 242.826 0 00-2.232-5.976 143.343 143.343 0 00-1.872-4.608zM164.018 35a145.05 145.05 0 00-2.736-4.392 179.606 179.606 0 00-3.132-4.752 99.733 99.733 0 00-3.312-4.644 76.292 76.292 0 00-3.168-4.068V35h-4.464V10.052h3.708a53.051 53.051 0 013.096 3.6 133.158 133.158 0 013.312 4.284 111.503 111.503 0 013.24 4.5 91.569 91.569 0 012.808 4.176v-16.56h4.5V35h-3.852zm18.224-13.896c1.08-1.8 2.136-3.624 3.168-5.472a71.381 71.381 0 002.808-5.58h5.04a215.715 215.715 0 01-4.212 7.596 165.113 165.113 0 01-4.644 7.56V35h-4.536v-9.72a192.78 192.78 0 01-4.68-7.632 215.715 215.715 0 01-4.212-7.596h5.328a80.333 80.333 0 002.772 5.58 124.413 124.413 0 003.168 5.472z" fill="#AC9573"/></svg>