<svg width="76" height="65" fill="none" xmlns="http://www.w3.org/2000/svg"><path d="M75.225 37.513c0 14.922-11.64 26.987-25.96 26.987s-25.96-12.065-25.96-26.987c0-14.923 11.64-26.988 25.96-26.988s25.96 12.065 25.96 26.988z" stroke="#AC9573"/><path d="M69.777 37.512c0 11.798-9.202 21.329-20.513 21.329-11.31 0-20.512-9.531-20.512-21.329 0-11.797 9.201-21.328 20.512-21.328s20.513 9.531 20.513 21.328z" stroke="#AC9573"/><path d="M51.878 37.512c0 1.528-1.187 2.734-2.613 2.734-1.425 0-2.613-1.206-2.613-2.734s1.188-2.733 2.613-2.733c1.426 0 2.613 1.205 2.613 2.733zm-2.113-18.594v4.042" stroke="#AC9573"/><path transform="matrix(.6935 -.72044 .6935 .72044 59.07 26.95)" stroke="#AC9573" d="M0-.5h3.967"/><path transform="scale(.98077 1.01886) rotate(-45 78.427 -19.923)" stroke="#AC9573" d="M0-.5h3.967"/><path transform="matrix(-.6935 -.72044 .6935 -.72044 61.82 50.557)" stroke="#AC9573" d="M0-.5h3.967"/><path transform="scale(-.98077 -1.01886) rotate(45 11.998 -61.346)" stroke="#AC9573" d="M0-.5h3.967"/><path stroke="#AC9573" d="M67.164 38.013h-3.891m-4.825 0h-6.226m-16.965 0h-3.891m17.399 14.052v4.042M42.76.5h13.008v5.468H42.76zm2.958 5.806v4.042M53.5 6.306v4.042M3.538 43.252h15.57M3.538 30.018h15.57M0 36.635h19.108"/></svg>