<svg width="84" height="66" fill="none" xmlns="http://www.w3.org/2000/svg"><path d="M49.419 29.63c0 11.444-8.926 20.688-19.897 20.688-10.97 0-19.896-9.244-19.896-20.688 0-11.444 8.926-20.689 19.896-20.689S49.42 18.186 49.42 29.63z" stroke="#AC9573"/><path d="M57.545 29.63c0 16.106-12.564 29.13-28.023 29.13C14.064 58.76 1.5 45.736 1.5 29.63S14.064.5 29.522.5c15.459 0 28.023 13.024 28.023 29.13z" stroke="#AC9573"/><path d="M1.163 31.877V65h51.519v-5.318m22.753-12.916h7.232v17.221h-7.232v-4.305m0-12.916v12.916m0-12.916h-7.842m7.842 12.916H52.682m0 0l.081-12.916h6.989m0 0v7.26m0-7.26h7.841m0 0v7.26M23.347 39.084h12.108M16.52 33.935h25.76M19.609 20.766v7.935h19.259v-7.935H19.609z" stroke="#AC9573"/></svg>