<svg width="54" height="20" fill="none" xmlns="http://www.w3.org/2000/svg"><path d="M41.338 12.204L41 16.951c.483 0 .692-.208.943-.457l2.263-2.163 4.69 3.435c.86.48 1.467.227 1.699-.792l3.079-14.426c.273-1.272-.46-1.77-1.297-1.458L34.28 8.02c-1.235.48-1.216 1.168-.21 1.48l4.627 1.439 10.746-6.725c.506-.335.966-.15.588.186l-8.693 7.805z" fill="#039BE5"/><path d="M18.146 11.578c.597-5.018-.287-8.186-1.88-9.619-2.57-2.448-11.256-2.81-14.332.11C.552 3.495.065 5.591.012 8.185c-.054 2.595-.117 7.457 4.417 8.776h.005l-.005 2.014s-.03.816.491.98c.597.193.867-.186 2.723-2.4 3.103.268 5.486-.348 5.757-.438.627-.21 4.173-.678 4.746-5.54zm-10.198 4.56s-1.964 2.447-2.575 3.083c-.2.206-.419.187-.415-.223 0-.268.015-3.343.015-3.343-3.845-1.101-3.618-5.24-3.576-7.406.041-2.167.438-3.941 1.608-5.136C5.705.585 13.32 1.15 15.258 2.972c2.372 2.1 1.528 8.035 1.533 8.238-.488 4.057-3.36 4.315-3.89 4.49-.225.075-2.32.614-4.952.438z" fill="#8E24AA"/><path d="M9.035 3.589c-.321 0-.321.5 0 .503 2.489.02 4.539 1.753 4.561 4.933 0 .335.492.331.488-.004h-.001c-.027-3.427-2.265-5.413-5.048-5.432z" fill="#8E24AA"/><path d="M12.31 8.498c-.008.331.482.347.487.011.04-1.889-1.125-3.445-3.316-3.609-.321-.023-.354.48-.034.504 1.9.144 2.9 1.44 2.862 3.094zm-.525 2.149c-.412-.239-.83-.09-1.004.144l-.363.468c-.184.239-.528.207-.528.207-2.512-.664-3.183-3.29-3.183-3.29s-.031-.355.199-.546l.453-.375c.227-.18.37-.612.14-1.038-.617-1.113-1.031-1.497-1.242-1.792-.222-.277-.555-.34-.902-.152h-.007c-.721.421-1.51 1.21-1.258 2.022.43.856 1.223 3.584 3.746 5.646 1.186.974 3.062 1.974 3.86 2.204l.007.012c.785.261 1.548-.558 1.955-1.3v-.006c.181-.359.121-.698-.143-.92-.468-.457-1.175-.96-1.73-1.284z" fill="#8E24AA"/><path d="M9.824 6.758c.8.047 1.189.465 1.23 1.323.016.336.503.313.488-.023-.053-1.12-.638-1.745-1.692-1.803-.32-.02-.35.484-.026.503z" fill="#8E24AA"/></svg>