<svg width="147" height="134" fill="none" xmlns="http://www.w3.org/2000/svg"><path d="M3.656 133h-2.36L1 1h2.263m.393 132L3.263 1m.393 132L145.41 95.398 146 7.004 3.263 1m11.41 117.235V14.19l125.818 1.28-.688 73.53-125.13 29.235z" stroke="#232323" stroke-opacity=".6"/><path d="M62.353 63h-.597v-8.004H56.81V63h-.597v-8.566h6.14V63zm6.147 0l-.147-1.008h-.046c-.32.41-.65.701-.99.873-.336.168-.735.252-1.196.252-.625 0-1.111-.16-1.459-.48-.348-.32-.521-.764-.521-1.33 0-.622.257-1.104.773-1.448.52-.343 1.27-.525 2.25-.544l1.213-.036v-.422c0-.605-.123-1.062-.37-1.37-.245-.31-.642-.464-1.189-.464-.59 0-1.2.164-1.834.493l-.216-.504c.699-.328 1.39-.492 2.074-.492.699 0 1.22.181 1.564.544.348.364.522.93.522 1.7V63H68.5zm-2.344-.41c.68 0 1.215-.194 1.606-.58.394-.39.591-.932.591-1.623v-.627l-1.113.047c-.894.043-1.533.183-1.916.421-.379.235-.568.602-.568 1.102 0 .398.121.71.363.932.246.218.592.328 1.037.328zm5.42-5.96v2.796h4.043V56.63h.574V63h-.574v-3.07h-4.043V63h-.58v-6.37h.58zm9.328 6.487c-.925 0-1.648-.285-2.168-.855-.515-.57-.773-1.37-.773-2.397 0-1.015.25-1.828.75-2.437.5-.613 1.174-.92 2.021-.92.75 0 1.342.261 1.776.785.433.523.65 1.234.65 2.133v.468h-4.588c.008.876.211 1.544.61 2.004.402.461.976.692 1.722.692.364 0 .682-.026.955-.076a5.76 5.76 0 001.05-.329v.528a4.54 4.54 0 01-.997.316c-.305.059-.64.088-1.008.088zm-.17-6.094c-.613 0-1.105.204-1.476.61-.371.402-.588.984-.65 1.746h3.937c0-.738-.16-1.314-.48-1.729-.32-.418-.764-.627-1.33-.627zM89.324 63h-.574v-5.83h-2.256c-.117 1.543-.262 2.72-.433 3.533-.168.809-.387 1.404-.657 1.787-.265.38-.611.569-1.037.569-.152 0-.285-.016-.398-.047v-.528c.074.024.18.035.316.035.442 0 .797-.464 1.067-1.394.273-.934.48-2.432.62-4.494h3.352V63zm2.713-3.685h2.244c1.496 0 2.244.587 2.244 1.763 0 .606-.209 1.078-.627 1.418-.417.336-1.017.504-1.798.504h-2.643v-6.37h.58v2.684zm0 .55v2.584h2.156c.555 0 .979-.117 1.272-.351.297-.235.445-.578.445-1.032 0-.422-.13-.726-.392-.914-.262-.191-.715-.287-1.36-.287h-2.12z" fill="#232323"/></svg>