<svg width="158" height="140" fill="none" xmlns="http://www.w3.org/2000/svg"><path d="M136.26 139L157 124.587l-.564-117.345M136.26 139l.789-130.396M136.26 139L1 97.918V1.794m155.436 5.448l-19.387 1.362m19.387-1.362L151.59 6.22 27.94 1 1 1.794m136.049 6.81L1 1.794m124.89 20.882l-.789 101.684L8.439 91.109V13.257l117.451 9.419z" stroke="#232323" stroke-opacity=".6"/><path d="M32.543 60.85a3.89 3.89 0 00-.908.105 4.48 4.48 0 00-.95.352l-.24-.54c.64-.304 1.36-.457 2.157-.457 1.265 0 2.257.375 2.976 1.125.723.75 1.084 1.776 1.084 3.077 0 .933-.162 1.748-.486 2.443-.324.695-.793 1.23-1.407 1.606-.609.37-1.314.556-2.115.556-.93 0-1.677-.1-2.244-.299v-.55a7.278 7.278 0 002.133.298c1.055 0 1.885-.33 2.49-.99.606-.66.936-1.59.99-2.789h-4.535v-.55h4.524c-.086-1.087-.428-1.922-1.026-2.508-.593-.586-1.408-.88-2.443-.88zm9.398 1.78h.721l-2.853 3.083L42.867 69h-.78l-3.01-3.228V69h-.593v-6.37h.592v3.095l2.865-3.094zm4.776 6.487c-.98 0-1.695-.367-2.145-1.101h-.04l.017.492c.016.289.023.605.023.949v2.426h-.58V62.63h.492l.112.908h.035c.437-.687 1.137-1.031 2.097-1.031.86 0 1.514.283 1.963.85.453.562.68 1.382.68 2.46 0 1.047-.238 1.86-.715 2.438-.472.574-1.119.861-1.94.861zm-.012-.515c.652 0 1.156-.243 1.512-.727.36-.484.539-1.162.539-2.033 0-1.871-.676-2.807-2.028-2.807-.742 0-1.287.205-1.634.615-.348.407-.522 1.07-.522 1.993v.187c0 .996.166 1.707.498 2.133.336.426.881.639 1.635.639zm8.303.398l-.147-1.008h-.046c-.32.41-.65.701-.99.873-.337.168-.735.252-1.196.252-.625 0-1.111-.16-1.46-.48-.347-.32-.52-.764-.52-1.33 0-.621.257-1.104.773-1.448.52-.343 1.27-.525 2.25-.544l1.213-.036v-.422c0-.605-.123-1.062-.37-1.37-.245-.31-.642-.464-1.189-.464-.59 0-1.201.164-1.834.493l-.217-.504c.7-.328 1.391-.492 2.075-.492.699 0 1.22.181 1.564.544.348.364.521.93.521 1.7V69h-.427zm-2.344-.41c.68 0 1.215-.194 1.605-.58.395-.39.592-.932.592-1.623v-.627l-1.113.047c-.895.043-1.533.183-1.916.421-.379.235-.568.602-.568 1.102 0 .398.12.71.363.932.246.219.592.328 1.037.328zm5.42-5.96v2.796h4.043V62.63h.574V69h-.574v-3.07h-4.043V69h-.58v-6.37h.58zm13.33 0h.72l-2.853 3.083L72.34 69h-.78l-3.011-3.228V69h-.592v-6.37h.592v3.095l2.865-3.094zm7.318 3.177c0 1.039-.251 1.851-.755 2.437-.504.582-1.2.873-2.086.873-.559 0-1.051-.135-1.477-.404-.426-.27-.752-.656-.978-1.16-.227-.504-.34-1.086-.34-1.746 0-1.04.252-1.848.756-2.426.504-.582 1.195-.873 2.074-.873.875 0 1.56.295 2.056.885.5.585.75 1.39.75 2.414zm-5.027 0c0 .875.192 1.558.574 2.05.387.489.932.733 1.635.733s1.246-.244 1.629-.733c.387-.492.58-1.175.58-2.05 0-.88-.195-1.56-.586-2.045-.387-.485-.931-.727-1.635-.727-.703 0-1.246.242-1.629.727-.379.48-.568 1.162-.568 2.045zm9.516 3.31c-.98 0-1.696-.367-2.145-1.101h-.04l.017.492c.015.289.023.605.023.949v2.426h-.58V62.63h.492l.112.908h.035c.437-.687 1.136-1.031 2.097-1.031.86 0 1.514.283 1.963.85.453.562.68 1.382.68 2.46 0 1.047-.238 1.86-.715 2.438-.472.574-1.119.861-1.94.861zm-.012-.515c.652 0 1.156-.243 1.512-.727.36-.484.539-1.162.539-2.033 0-1.871-.676-2.807-2.028-2.807-.742 0-1.287.205-1.634.615-.348.407-.522 1.07-.522 1.993v.187c0 .996.166 1.707.498 2.133.336.426.881.639 1.635.639zm9.703-2.795c0 1.039-.252 1.851-.756 2.437-.504.582-1.199.873-2.086.873-.558 0-1.05-.135-1.476-.404-.426-.27-.752-.656-.979-1.16-.226-.504-.34-1.086-.34-1.746 0-1.04.252-1.848.756-2.426.504-.582 1.196-.873 2.075-.873.875 0 1.56.295 2.056.885.5.585.75 1.39.75 2.414zm-5.027 0c0 .875.191 1.558.574 2.05.387.489.932.733 1.635.733s1.246-.244 1.629-.733c.386-.492.58-1.175.58-2.05 0-.88-.196-1.56-.586-2.045-.387-.485-.932-.727-1.635-.727s-1.246.242-1.629.727c-.379.48-.568 1.162-.568 2.045zm6.445-.633c0-2.766.78-4.342 2.338-4.729a26.98 26.98 0 011.57-.345l1.336-.258.106.504-.703.135c-1.16.218-1.926.386-2.297.503-.528.153-.942.518-1.243 1.096-.296.578-.466 1.37-.51 2.373h.036c.418-.496.824-.85 1.219-1.06.394-.215.8-.323 1.218-.323.782 0 1.38.252 1.793.756.414.504.621 1.22.621 2.15 0 .989-.238 1.76-.714 2.315-.477.55-1.147.826-2.01.826-.875 0-1.555-.342-2.04-1.025-.48-.684-.72-1.656-.72-2.918zm2.807 3.416c.668 0 1.177-.223 1.529-.668.356-.445.533-1.086.533-1.922 0-.793-.158-1.39-.474-1.793-.313-.406-.774-.61-1.383-.61-.453 0-.893.143-1.319.428-.421.282-.79.672-1.107 1.172 0 .7.086 1.313.258 1.84.176.527.43.918.761 1.172.333.254.733.38 1.202.38z" fill="#232323"/></svg>