<svg width="47" height="47" fill="none" xmlns="http://www.w3.org/2000/svg"><path d="M3.838 6.62L1 6.99V4.019L23.432 1l22.252 3.018v2.973l-2.658-.35m-39.188-.02l19.594-2.558 19.594 2.578m-39.188-.02v39.378m0 0H1.045m2.793 0H6.63m36.395 0V6.641m0 39.358H46m-2.973 0h-2.973M6.632 46h33.422M6.632 46V26.495M40.053 46V26.495M6.632 15.37v-2.748h33.422v2.748m-33.422 0h33.422m-33.422 0v2.613m33.422-2.613v2.613m0 0H6.632m33.422 0v2.838M6.632 17.982v2.838m0 0h33.422m-33.422 0v2.837m33.422-2.837v2.837m0 0H6.632m33.422 0v2.838M6.632 23.657v2.838m0 0h33.422M12.265 38.302h7.378V45.5h-7.378z" stroke="#AC9573"/><path d="M15.701 40.01l-.556.408v-2.117h1.703v2.117l-.555-.407-.296-.217-.296.217zm3.952-1.708h7.378V45.5h-7.378z" stroke="#AC9573"/><path d="M23.09 40.01l-.556.408v-2.117h1.703v2.117l-.556-.407-.296-.217-.295.217zm3.952-1.708h7.378V45.5h-7.378z" stroke="#AC9573"/><path d="M30.479 40.01l-.556.408v-2.117h1.703v2.117l-.556-.407-.296-.217-.296.217zm-6.5-8.917h7.378v7.198h-7.378z" stroke="#AC9573"/><path d="M27.416 32.803l-.556.407v-2.117h1.703v2.117l-.556-.407-.295-.217-.296.217zm-10.825-1.71h7.378v7.198h-7.378z" stroke="#AC9573"/><path d="M20.027 32.803l-.555.407v-2.117h1.702v2.117l-.555-.407-.296-.217-.296.217z" stroke="#AC9573"/></svg>