<svg width="45" height="38" fill="none" xmlns="http://www.w3.org/2000/svg"><path d="M26.79 30.455c-1.078.452-1.53 1.738-1.044 2.78l1.704 3.582a2.079 2.079 0 002.712 1.008c2.955-1.252 5.492-2.886 7.509-4.868 2.468-2.329 4.137-5.006 5.04-7.96.905-2.99 1.392-7.058 1.392-12.238V2.086A2.092 2.092 0 0042.017 0H28.354a2.092 2.092 0 00-2.086 2.086v13.663c0 1.147.938 2.086 2.086 2.086h6.536c-.07 3.511-.904 6.327-2.434 8.448-1.252 1.703-3.129 3.093-5.667 4.172zm-25.551 0c-1.078.452-1.53 1.738-1.043 2.78l1.703 3.582a2.078 2.078 0 002.712 1.008c2.955-1.252 5.493-2.886 7.51-4.868 2.467-2.329 4.136-5.006 5.04-7.96.904-2.99 1.39-7.058 1.39-12.238V2.086A2.092 2.092 0 0016.467 0H2.803A2.092 2.092 0 00.717 2.086v13.663c0 1.147.939 2.086 2.086 2.086h6.536c-.07 3.511-.904 6.327-2.434 8.448-1.251 1.703-3.129 3.093-5.666 4.172z" fill="#AC9573" fill-opacity=".15"/></svg>