<svg width="71" height="67" fill="none" xmlns="http://www.w3.org/2000/svg"><path d="M20.858 66H1V31.184M20.858 66V44.937m0 21.063H70.12V44.937H37.51M1 31.184V1h19.858v30.184M1 31.184h19.858m0 0v.94M5.459 46.023h11.218M5.46 50.148h5.923m9.476-18.023L43.991 8.094l14.493 15.055L37.51 44.937M20.858 32.125v12.812m16.653 0H20.858m-6.828-7.745v4.487H5.46v-4.488h8.57z" stroke="#AC9573"/><path stroke="#AC9573" d="M27.489 49.996h8.755v10.581h-8.755zm14.633 0h8.755v10.581h-8.755zm14.632 0h8.755v10.581h-8.755z"/><path transform="matrix(.6935 -.72044 .6935 .72044 27.48 33.021)" stroke="#AC9573" d="M.694 0H9.64v10.367H.694z"/><path transform="scale(.98077 1.01886) rotate(-45 45.673 -35.627)" stroke="#AC9573" d="M.694 0H9.64v10.367H.694z"/><path d="M16.734 58.906c0 1.341-1.041 2.396-2.287 2.396-1.245 0-2.287-1.055-2.287-2.396 0-1.34 1.042-2.395 2.287-2.395 1.246 0 2.287 1.054 2.287 2.395z" stroke="#AC9573"/></svg>