<svg width="25" height="25" fill="none" xmlns="http://www.w3.org/2000/svg"><g clip-path="url(#clip0)" fill="#AC9573" fill-opacity=".7"><path d="M24.12 14.472c.746-6.278-.358-10.242-2.35-12.035h.001c-3.215-3.062-14.07-3.515-17.917.137C2.127 4.36 1.52 6.982 1.452 10.228c-.066 3.247-.146 9.33 5.522 10.98h.005l-.005 2.519s-.038 1.02.614 1.226c.746.242 1.083-.232 3.403-3.003 3.879.336 6.858-.434 7.197-.547.783-.262 5.215-.849 5.932-6.931zm-12.747 5.705s-2.455 3.061-3.219 3.856c-.25.258-.524.234-.52-.278 0-.336.02-4.183.02-4.183-4.806-1.377-4.523-6.556-4.47-9.266.052-2.71.547-4.93 2.01-6.425C8.568.718 18.086 1.425 20.511 3.704c2.964 2.628 1.909 10.053 1.915 10.306-.61 5.077-4.2 5.4-4.861 5.619-.283.094-2.902.768-6.192.548z"/><path d="M12.731 4.476c-.4 0-.4.625 0 .63 3.112.024 5.674 2.193 5.702 6.17 0 .42.615.415.61-.004h-.001c-.034-4.287-2.831-6.772-6.31-6.796z"/><path d="M16.824 10.617c-.01.415.604.435.61.015.05-2.363-1.407-4.31-4.146-4.516-.4-.029-.442.602-.042.63 2.375.18 3.626 1.802 3.578 3.871zm-.656 2.689c-.514-.298-1.038-.112-1.255.18l-.453.587c-.23.297-.66.258-.66.258-3.14-.83-3.98-4.116-3.98-4.116s-.038-.444.25-.683l.566-.469c.283-.225.462-.766.174-1.299-.771-1.392-1.289-1.873-1.552-2.241-.277-.347-.694-.425-1.127-.191h-.01c-.9.527-1.887 1.514-1.572 2.53.539 1.07 1.529 4.483 4.683 7.063 1.482 1.22 3.828 2.47 4.824 2.758l.009.015c.981.327 1.935-.698 2.445-1.626v-.008c.226-.449.15-.874-.18-1.152-.585-.57-1.468-1.2-2.162-1.606z"/><path d="M13.718 8.441c1 .059 1.486.582 1.539 1.656.018.42.628.39.609-.03-.067-1.402-.798-2.183-2.115-2.256-.4-.024-.438.606-.033.63z"/></g><defs><clipPath id="clip0"><path fill="#fff" d="M0 0h25v25H0z"/></clipPath></defs></svg>